<svg width="690" height="590" viewBox="0 0 690 590" fill="none" xmlns="http://www.w3.org/2000/svg">
<g clip-path="url(#clip0_17530_51615)">
<g opacity="0.15">
<path opacity="0.9" d="M15.9705 417.323L314.795 296.485C334.562 288.493 356.626 288.502 376.384 296.528L674.057 417.34C695.358 425.983 695.298 456.445 673.963 465.01L376.096 584.59C356.507 592.454 334.681 592.471 315.084 584.624L16.0638 465.018C-5.31356 456.47 -5.36442 425.957 15.9705 417.323Z" fill="#001E2B"/>
<path d="M15.9705 412.823L314.795 291.985C334.562 283.993 356.626 284.002 376.384 292.028L674.057 412.84C695.358 421.483 695.298 451.945 673.963 460.51L376.096 580.09C356.508 587.954 334.681 587.971 315.084 580.124L16.0638 460.518C-5.31356 451.97 -5.36442 421.457 15.9705 412.823Z" fill="#006CFA"/>
<path d="M308.834 515.609C308.834 519.335 311.714 522.215 315.458 522.215C319.184 522.215 322.226 519.353 321.866 514.691H315.386V516.257H320.156C319.922 518.777 318.086 520.631 315.458 520.631C312.614 520.631 310.508 518.435 310.508 515.609C310.508 512.783 312.614 510.587 315.458 510.587C317.384 510.587 318.968 511.613 319.652 512.999H321.506C320.786 510.875 318.482 509.003 315.458 509.003C311.714 509.003 308.834 511.883 308.834 515.609ZM324.142 521.999H325.69V508.499H324.142V521.999ZM337.318 517.499C337.318 514.907 335.32 512.819 332.62 512.819C329.902 512.819 327.904 514.907 327.904 517.499C327.904 520.091 329.902 522.179 332.62 522.179C335.32 522.179 337.318 520.091 337.318 517.499ZM329.488 517.499C329.488 515.699 330.748 514.259 332.62 514.259C334.492 514.259 335.734 515.699 335.734 517.499C335.734 519.299 334.492 520.739 332.62 520.739C330.748 520.739 329.488 519.299 329.488 517.499ZM341.088 520.613C341.682 521.477 342.906 522.179 344.256 522.179C346.758 522.179 348.666 520.073 348.666 517.499C348.666 514.925 346.758 512.819 344.256 512.819C342.906 512.819 341.682 513.521 341.088 514.385V508.499H339.54V521.999H341.088V520.613ZM347.082 517.499C347.082 519.317 345.84 520.757 344.022 520.757C342.204 520.757 340.962 519.317 340.962 517.499C340.962 515.681 342.204 514.241 344.022 514.241C345.84 514.241 347.082 515.681 347.082 517.499ZM350.176 517.499C350.176 520.073 352.066 522.179 354.586 522.179C355.936 522.179 357.16 521.477 357.754 520.613V521.999H359.302V512.999H357.754V514.385C357.16 513.521 355.936 512.819 354.586 512.819C352.066 512.819 350.176 514.925 350.176 517.499ZM357.88 517.499C357.88 519.317 356.638 520.757 354.82 520.757C353.002 520.757 351.742 519.317 351.742 517.499C351.742 515.681 353.002 514.241 354.82 514.241C356.638 514.241 357.88 515.681 357.88 517.499ZM362.216 521.999H363.764V508.499H362.216V521.999ZM380.994 521.999H383.028L379.716 518.759L382.002 515.843H380.202L378.69 517.769L375.972 515.105C377.214 514.457 378.438 513.557 378.438 511.973C378.438 510.353 377.178 509.003 375.288 509.003C373.47 509.003 372.03 510.191 372.03 511.901C372.03 513.125 372.822 514.061 373.578 514.799L373.488 514.853C372.138 515.627 370.77 516.653 370.77 518.507C370.77 520.613 372.354 522.179 374.694 522.179C376.35 522.179 377.484 521.441 378.816 519.875L380.994 521.999ZM373.524 511.937C373.524 510.947 374.334 510.353 375.252 510.353C376.26 510.353 376.908 511.073 376.908 512.081C376.908 513.053 376.08 513.575 375.054 514.097L374.964 514.133C374.136 513.359 373.524 512.783 373.524 511.937ZM372.336 518.525C372.336 517.301 373.11 516.599 374.37 515.933L374.604 515.789L377.808 518.903C376.746 520.163 375.9 520.775 374.748 520.775C373.506 520.775 372.336 519.947 372.336 518.525ZM303.262 540.255L307.87 534.063V543.999H309.526V531.219H308.014L303.262 537.591L298.51 531.219H296.98V543.999H298.654V534.063L303.262 540.255ZM312.511 540.525C312.511 542.757 313.843 544.179 315.823 544.179C316.957 544.179 318.001 543.657 318.595 542.613V543.999H320.143V534.999H318.595V539.463C318.595 541.533 317.497 542.757 316.093 542.757C314.851 542.757 314.059 541.803 314.059 540.291V534.999H312.511V540.525ZM323.061 543.999H324.609V530.499H323.061V543.999ZM332.421 543.873V542.487C332.133 542.595 331.701 542.667 331.323 542.667C330.351 542.667 329.829 542.289 329.829 541.137V536.421H332.421V534.999H329.829V532.497H328.281V534.999H326.373V536.421H328.281V541.335C328.281 543.207 329.469 544.089 331.035 544.089C331.593 544.089 332.043 543.999 332.421 543.873ZM336.27 531.489C336.27 530.895 335.802 530.391 335.19 530.391C334.578 530.391 334.074 530.895 334.074 531.489C334.074 532.101 334.578 532.587 335.19 532.587C335.802 532.587 336.27 532.101 336.27 531.489ZM334.398 543.999H335.946V534.999H334.398V543.999ZM338.593 539.733H343.183V538.185H338.593V539.733ZM345.194 537.609C345.194 541.335 348.074 544.215 351.818 544.215C355.04 544.215 357.38 542.109 357.938 539.787H356.174C355.616 541.389 353.942 542.631 351.818 542.631C348.974 542.631 346.868 540.435 346.868 537.609C346.868 534.783 348.974 532.587 351.818 532.587C353.942 532.587 355.616 533.829 356.174 535.431H357.938C357.38 533.109 355.04 531.003 351.818 531.003C348.074 531.003 345.194 533.883 345.194 537.609ZM360.01 543.999H361.558V530.499H360.01V543.999ZM373.186 539.499C373.186 536.907 371.188 534.819 368.488 534.819C365.77 534.819 363.772 536.907 363.772 539.499C363.772 542.091 365.77 544.179 368.488 544.179C371.188 544.179 373.186 542.091 373.186 539.499ZM365.356 539.499C365.356 537.699 366.616 536.259 368.488 536.259C370.36 536.259 371.602 537.699 371.602 539.499C371.602 541.299 370.36 542.739 368.488 542.739C366.616 542.739 365.356 541.299 365.356 539.499ZM375.282 540.525C375.282 542.757 376.614 544.179 378.594 544.179C379.728 544.179 380.772 543.657 381.366 542.613V543.999H382.914V534.999H381.366V539.463C381.366 541.533 380.268 542.757 378.864 542.757C377.622 542.757 376.83 541.803 376.83 540.291V534.999H375.282V540.525ZM385.13 539.499C385.13 542.073 387.02 544.179 389.54 544.179C390.89 544.179 392.114 543.477 392.708 542.613V543.999H394.256V530.499H392.708V536.385C392.114 535.521 390.89 534.819 389.54 534.819C387.02 534.819 385.13 536.925 385.13 539.499ZM392.834 539.499C392.834 541.317 391.592 542.757 389.774 542.757C387.956 542.757 386.696 541.317 386.696 539.499C386.696 537.681 387.956 536.241 389.774 536.241C391.592 536.241 392.834 537.681 392.834 539.499Z" fill="white"/>
<path d="M466.711 466H468.385V460.186H469.627L474.541 466H476.647L471.733 460.168C473.695 459.88 474.883 458.62 474.883 456.748C474.883 454.642 473.425 453.22 471.067 453.22H466.711V466ZM468.385 458.692V454.768H470.869C472.327 454.768 473.209 455.452 473.209 456.748C473.209 458.026 472.327 458.692 470.869 458.692H468.385ZM485.685 463.264H484.101C483.561 464.344 482.607 464.776 481.491 464.776C479.871 464.776 478.557 463.552 478.503 461.914H485.829C486.045 459.124 484.335 456.82 481.509 456.82C478.701 456.82 476.937 458.872 476.937 461.5C476.937 464.182 478.845 466.18 481.473 466.18C483.759 466.18 485.235 464.848 485.685 463.264ZM481.455 458.188C482.787 458.188 483.903 459.016 484.191 460.69H478.575C478.881 458.908 480.159 458.188 481.455 458.188ZM494.272 463.57C494.272 462.22 493.462 461.284 491.968 460.906L490.528 460.528C489.574 460.276 489.16 459.898 489.16 459.232C489.16 458.548 489.844 458.116 490.708 458.116C491.554 458.116 492.202 458.602 492.436 459.394H493.984C493.822 457.954 492.634 456.82 490.708 456.82C488.89 456.82 487.594 457.756 487.594 459.25C487.594 460.528 488.368 461.5 489.916 461.896L491.212 462.238C492.274 462.526 492.706 462.958 492.706 463.678C492.706 464.47 491.95 464.866 490.978 464.866C490.042 464.866 489.106 464.488 488.89 463.39H487.306C487.432 465.208 489.034 466.18 490.96 466.18C492.832 466.18 494.272 465.352 494.272 463.57ZM498.337 453.49C498.337 452.896 497.869 452.392 497.257 452.392C496.645 452.392 496.141 452.896 496.141 453.49C496.141 454.102 496.645 454.588 497.257 454.588C497.869 454.588 498.337 454.102 498.337 453.49ZM496.465 466H498.013V457H496.465V466ZM500.947 466H502.495V452.5H500.947V466ZM507.302 453.49C507.302 452.896 506.834 452.392 506.222 452.392C505.61 452.392 505.106 452.896 505.106 453.49C505.106 454.102 505.61 454.588 506.222 454.588C506.834 454.588 507.302 454.102 507.302 453.49ZM505.43 466H506.978V457H505.43V466ZM517.958 463.264H516.374C515.834 464.344 514.88 464.776 513.764 464.776C512.144 464.776 510.83 463.552 510.776 461.914H518.102C518.318 459.124 516.608 456.82 513.782 456.82C510.974 456.82 509.21 458.872 509.21 461.5C509.21 464.182 511.118 466.18 513.746 466.18C516.032 466.18 517.508 464.848 517.958 463.264ZM513.728 458.188C515.06 458.188 516.176 459.016 516.464 460.69H510.848C511.154 458.908 512.432 458.188 513.728 458.188ZM520.336 466H521.884V461.536C521.884 459.43 523.036 458.242 524.494 458.242C525.754 458.242 526.618 459.178 526.618 460.69V466H528.148V460.456C528.148 458.224 526.762 456.82 524.746 456.82C523.576 456.82 522.496 457.324 521.884 458.386V457H520.336V466ZM535.708 465.874V464.488C535.42 464.596 534.988 464.668 534.61 464.668C533.638 464.668 533.116 464.29 533.116 463.138V458.422H535.708V457H533.116V454.498H531.568V457H529.66V458.422H531.568V463.336C531.568 465.208 532.756 466.09 534.322 466.09C534.88 466.09 535.33 466 535.708 465.874ZM551.981 466H554.015L550.703 462.76L552.989 459.844H551.189L549.677 461.77L546.959 459.106C548.201 458.458 549.425 457.558 549.425 455.974C549.425 454.354 548.165 453.004 546.275 453.004C544.457 453.004 543.017 454.192 543.017 455.902C543.017 457.126 543.809 458.062 544.565 458.8L544.475 458.854C543.125 459.628 541.757 460.654 541.757 462.508C541.757 464.614 543.341 466.18 545.681 466.18C547.337 466.18 548.471 465.442 549.803 463.876L551.981 466ZM544.511 455.938C544.511 454.948 545.321 454.354 546.239 454.354C547.247 454.354 547.895 455.074 547.895 456.082C547.895 457.054 547.067 457.576 546.041 458.098L545.951 458.134C545.123 457.36 544.511 456.784 544.511 455.938ZM543.323 462.526C543.323 461.302 544.097 460.6 545.357 459.934L545.591 459.79L548.795 462.904C547.733 464.164 546.887 464.776 545.735 464.776C544.493 464.776 543.323 463.948 543.323 462.526ZM483.19 488H490.642V486.416H484.864V482.258H489.562V480.674H484.864V476.804H490.642V475.22H483.19V488ZM492.958 488H494.506V474.5H492.958V488ZM496.738 483.5C496.738 486.074 498.628 488.18 501.148 488.18C502.498 488.18 503.722 487.478 504.316 486.614V488H505.864V479H504.316V480.386C503.722 479.522 502.498 478.82 501.148 478.82C498.628 478.82 496.738 480.926 496.738 483.5ZM504.442 483.5C504.442 485.318 503.2 486.758 501.382 486.758C499.564 486.758 498.304 485.318 498.304 483.5C498.304 481.682 499.564 480.242 501.382 480.242C503.2 480.242 504.442 481.682 504.442 483.5ZM514.988 485.57C514.988 484.22 514.178 483.284 512.684 482.906L511.244 482.528C510.29 482.276 509.876 481.898 509.876 481.232C509.876 480.548 510.56 480.116 511.424 480.116C512.27 480.116 512.918 480.602 513.152 481.394H514.7C514.538 479.954 513.35 478.82 511.424 478.82C509.606 478.82 508.31 479.756 508.31 481.25C508.31 482.528 509.084 483.5 510.632 483.896L511.928 484.238C512.99 484.526 513.422 484.958 513.422 485.678C513.422 486.47 512.666 486.866 511.694 486.866C510.758 486.866 509.822 486.488 509.606 485.39H508.022C508.148 487.208 509.75 488.18 511.676 488.18C513.548 488.18 514.988 487.352 514.988 485.57ZM521.918 487.874V486.488C521.63 486.596 521.198 486.668 520.82 486.668C519.848 486.668 519.326 486.29 519.326 485.138V480.422H521.918V479H519.326V476.498H517.778V479H515.87V480.422H517.778V485.336C517.778 487.208 518.966 488.09 520.532 488.09C521.09 488.09 521.54 488 521.918 487.874ZM525.768 475.49C525.768 474.896 525.3 474.392 524.688 474.392C524.076 474.392 523.572 474.896 523.572 475.49C523.572 476.102 524.076 476.588 524.688 476.588C525.3 476.588 525.768 476.102 525.768 475.49ZM523.896 488H525.444V479H523.896V488ZM536.91 484.832H535.254C534.858 485.966 533.778 486.758 532.374 486.758C530.502 486.758 529.242 485.318 529.242 483.5C529.242 481.682 530.502 480.242 532.374 480.242C533.778 480.242 534.858 481.034 535.254 482.168H536.91C536.406 480.224 534.642 478.82 532.374 478.82C529.638 478.82 527.676 480.926 527.676 483.5C527.676 486.074 529.638 488.18 532.374 488.18C534.642 488.18 536.406 486.776 536.91 484.832Z" fill="white"/>
<path d="M144.279 462.58C144.351 464.524 146.043 466.216 148.725 466.216C151.101 466.216 152.793 464.848 152.793 462.688C152.793 460.78 151.677 459.664 149.733 458.962L148.095 458.368C146.853 457.918 146.259 457.378 146.259 456.298C146.259 455.236 147.213 454.57 148.437 454.57C149.481 454.57 150.525 455.128 150.849 456.46H152.505C152.343 454.786 151.065 453.004 148.473 453.004C146.241 453.004 144.585 454.264 144.585 456.352C144.603 458.152 145.557 459.25 147.537 459.952L149.301 460.6C150.489 461.032 151.119 461.734 151.119 462.742C151.119 463.93 150.039 464.65 148.707 464.65C147.501 464.65 146.097 464.002 145.953 462.58H144.279ZM163.116 463.264H161.532C160.992 464.344 160.038 464.776 158.922 464.776C157.302 464.776 155.988 463.552 155.934 461.914H163.26C163.476 459.124 161.766 456.82 158.94 456.82C156.132 456.82 154.368 458.872 154.368 461.5C154.368 464.182 156.276 466.18 158.904 466.18C161.19 466.18 162.666 464.848 163.116 463.264ZM158.886 458.188C160.218 458.188 161.334 459.016 161.622 460.69H156.006C156.312 458.908 157.59 458.188 158.886 458.188ZM174.026 462.832H172.37C171.974 463.966 170.894 464.758 169.49 464.758C167.618 464.758 166.358 463.318 166.358 461.5C166.358 459.682 167.618 458.242 169.49 458.242C170.894 458.242 171.974 459.034 172.37 460.168H174.026C173.522 458.224 171.758 456.82 169.49 456.82C166.754 456.82 164.792 458.926 164.792 461.5C164.792 464.074 166.754 466.18 169.49 466.18C171.758 466.18 173.522 464.776 174.026 462.832ZM175.95 462.526C175.95 464.758 177.282 466.18 179.262 466.18C180.396 466.18 181.44 465.658 182.034 464.614V466H183.582V457H182.034V461.464C182.034 463.534 180.936 464.758 179.532 464.758C178.29 464.758 177.498 463.804 177.498 462.292V457H175.95V462.526ZM186.5 466H188.048V461.536C188.048 459.43 189.29 458.44 190.424 458.44C190.73 458.44 190.982 458.476 191.27 458.584V456.982C191.018 456.928 190.802 456.91 190.568 456.91C189.524 456.91 188.408 457.594 188.048 458.746V457H186.5V466ZM200.821 463.264H199.237C198.697 464.344 197.743 464.776 196.627 464.776C195.007 464.776 193.693 463.552 193.639 461.914H200.965C201.181 459.124 199.471 456.82 196.645 456.82C193.837 456.82 192.073 458.872 192.073 461.5C192.073 464.182 193.981 466.18 196.609 466.18C198.895 466.18 200.371 464.848 200.821 463.264ZM196.591 458.188C197.923 458.188 199.039 459.016 199.327 460.69H193.711C194.017 458.908 195.295 458.188 196.591 458.188ZM217.495 466H219.529L216.217 462.76L218.503 459.844H216.703L215.191 461.77L212.473 459.106C213.715 458.458 214.939 457.558 214.939 455.974C214.939 454.354 213.679 453.004 211.789 453.004C209.971 453.004 208.531 454.192 208.531 455.902C208.531 457.126 209.323 458.062 210.079 458.8L209.989 458.854C208.639 459.628 207.271 460.654 207.271 462.508C207.271 464.614 208.855 466.18 211.195 466.18C212.851 466.18 213.985 465.442 215.317 463.876L217.495 466ZM210.025 455.938C210.025 454.948 210.835 454.354 211.753 454.354C212.761 454.354 213.409 455.074 213.409 456.082C213.409 457.054 212.581 457.576 211.555 458.098L211.465 458.134C210.637 457.36 210.025 456.784 210.025 455.938ZM208.837 462.526C208.837 461.302 209.611 460.6 210.871 459.934L211.105 459.79L214.309 462.904C213.247 464.164 212.401 464.776 211.249 464.776C210.007 464.776 208.837 463.948 208.837 462.526ZM137.31 481.61C137.31 485.336 140.19 488.216 143.934 488.216C147.156 488.216 149.496 486.11 150.054 483.788H148.29C147.732 485.39 146.058 486.632 143.934 486.632C141.09 486.632 138.984 484.436 138.984 481.61C138.984 478.784 141.09 476.588 143.934 476.588C146.058 476.588 147.732 477.83 148.29 479.432H150.054C149.496 477.11 147.156 475.004 143.934 475.004C140.19 475.004 137.31 477.884 137.31 481.61ZM160.82 483.5C160.82 480.908 158.822 478.82 156.122 478.82C153.404 478.82 151.406 480.908 151.406 483.5C151.406 486.092 153.404 488.18 156.122 488.18C158.822 488.18 160.82 486.092 160.82 483.5ZM152.99 483.5C152.99 481.7 154.25 480.26 156.122 480.26C157.994 480.26 159.236 481.7 159.236 483.5C159.236 485.3 157.994 486.74 156.122 486.74C154.25 486.74 152.99 485.3 152.99 483.5ZM163.042 488H164.59V483.536C164.59 481.502 165.616 480.242 167.074 480.242C168.244 480.242 168.838 481.25 168.838 482.708V488H170.386V483.536C170.386 481.502 171.394 480.242 172.852 480.242C174.022 480.242 174.634 481.25 174.634 482.708V488H176.182V482.474C176.182 480.278 174.994 478.82 173.032 478.82C171.7 478.82 170.566 479.558 170.08 480.746C169.63 479.558 168.658 478.82 167.308 478.82C166.102 478.82 165.112 479.432 164.59 480.386V479H163.042V488ZM178.968 491.762H180.516V486.614C181.11 487.478 182.334 488.18 183.684 488.18C186.186 488.18 188.094 486.074 188.094 483.5C188.094 480.926 186.186 478.82 183.684 478.82C182.334 478.82 181.11 479.522 180.516 480.386V479H178.968V491.762ZM186.51 483.5C186.51 485.318 185.268 486.758 183.45 486.758C181.632 486.758 180.39 485.318 180.39 483.5C180.39 481.682 181.632 480.242 183.45 480.242C185.268 480.242 186.51 481.682 186.51 483.5ZM190.323 488H191.871V474.5H190.323V488ZM196.678 475.49C196.678 474.896 196.21 474.392 195.598 474.392C194.986 474.392 194.482 474.896 194.482 475.49C194.482 476.102 194.986 476.588 195.598 476.588C196.21 476.588 196.678 476.102 196.678 475.49ZM194.806 488H196.354V479H194.806V488ZM198.586 483.5C198.586 486.074 200.476 488.18 202.996 488.18C204.346 488.18 205.57 487.478 206.164 486.614V488H207.712V479H206.164V480.386C205.57 479.522 204.346 478.82 202.996 478.82C200.476 478.82 198.586 480.926 198.586 483.5ZM206.29 483.5C206.29 485.318 205.048 486.758 203.23 486.758C201.412 486.758 200.152 485.318 200.152 483.5C200.152 481.682 201.412 480.242 203.23 480.242C205.048 480.242 206.29 481.682 206.29 483.5ZM210.626 488H212.174V483.536C212.174 481.43 213.326 480.242 214.784 480.242C216.044 480.242 216.908 481.178 216.908 482.69V488H218.438V482.456C218.438 480.224 217.052 478.82 215.036 478.82C213.866 478.82 212.786 479.324 212.174 480.386V479H210.626V488ZM225.998 487.874V486.488C225.71 486.596 225.278 486.668 224.9 486.668C223.928 486.668 223.406 486.29 223.406 485.138V480.422H225.998V479H223.406V476.498H221.858V479H219.95V480.422H221.858V485.336C221.858 487.208 223.046 488.09 224.612 488.09C225.17 488.09 225.62 488 225.998 487.874Z" fill="white"/>
<path opacity="0.3" d="M579 375L192 530" stroke="white" stroke-linecap="square"/>
<path opacity="0.3" d="M499 530L112 375" stroke="white" stroke-linecap="square"/>
</g>
<g opacity="0.1">
<path opacity="0.9" d="M125.647 295.564L324.865 215.005C338.043 209.677 352.752 209.683 365.924 215.034L564.373 295.576C578.574 301.337 578.535 321.645 564.311 327.356L365.732 407.076C352.673 412.319 338.122 412.33 325.057 407.099L125.709 327.361C111.458 321.663 111.424 301.32 125.647 295.564Z" fill="#001E2B"/>
<path opacity="0.9" d="M96.6642 388.38L157.296 364.212C161.306 362.614 165.783 362.616 169.792 364.221L230.189 388.383C234.511 390.112 234.499 396.204 230.17 397.917L169.733 421.833C165.759 423.406 161.33 423.41 157.354 421.84L96.6832 397.919C92.3457 396.209 92.3354 390.107 96.6642 388.38Z" fill="#001E2B"/>
<path opacity="0.9" d="M192.484 427.38L253.115 403.212C257.126 401.614 261.602 401.616 265.611 403.221L326.009 427.383C330.331 429.112 330.318 435.204 325.99 436.917L265.553 460.833C261.578 462.406 257.15 462.41 253.173 460.84L192.502 436.919C188.165 435.209 188.155 429.107 192.484 427.38Z" fill="#001E2B"/>
<path opacity="0.9" d="M593.579 388.38L532.948 364.212C528.937 362.614 524.46 362.616 520.451 364.221L460.054 388.383C455.732 390.112 455.744 396.204 460.073 397.917L520.51 421.833C524.484 423.406 528.913 423.41 532.889 421.84L593.56 397.919C597.897 396.209 597.908 390.107 593.579 388.38Z" fill="#001E2B"/>
<path opacity="0.9" d="M497.76 427.38L437.128 403.212C433.118 401.614 428.641 401.616 424.632 403.221L364.235 427.383C359.913 429.112 359.925 435.204 364.254 436.917L424.69 460.833C428.665 462.406 433.094 462.41 437.07 460.84L497.741 436.919C502.078 435.209 502.088 429.107 497.76 427.38Z" fill="#001E2B"/>
</g>
<g opacity="0.15">
<path opacity="0.9" d="M125.647 279.564L324.865 199.005C338.043 193.677 352.752 193.683 365.924 199.034L564.373 279.576C578.574 285.337 578.535 305.645 564.311 311.356L365.732 391.076C352.673 396.319 338.122 396.33 325.057 391.099L125.709 311.361C111.458 305.663 111.424 285.32 125.647 279.564Z" fill="#001E2B"/>
<path d="M125.647 276.564L324.865 196.005C338.043 190.677 352.752 190.683 365.924 196.034L564.373 276.576C578.574 282.337 578.535 302.645 564.311 308.356L365.732 388.076C352.673 393.319 338.122 393.33 325.057 388.099L125.709 308.361C111.458 302.663 111.424 282.32 125.647 276.564Z" fill="#00ED64"/>
<path d="M287.037 328.047V320.235H285.363V328.083C285.363 330.369 284.031 331.647 282.033 331.647C280.035 331.647 278.703 330.369 278.703 328.083V320.235H277.029V328.047C277.029 331.233 279.081 333.231 282.033 333.231C284.985 333.231 287.037 331.233 287.037 328.047ZM289.859 333.015H291.407V328.551C291.407 326.445 292.559 325.257 294.017 325.257C295.277 325.257 296.141 326.193 296.141 327.705V333.015H297.671V327.471C297.671 325.239 296.285 323.835 294.269 323.835C293.099 323.835 292.019 324.339 291.407 325.401V324.015H289.859V333.015ZM302.331 320.505C302.331 319.911 301.863 319.407 301.251 319.407C300.639 319.407 300.135 319.911 300.135 320.505C300.135 321.117 300.639 321.603 301.251 321.603C301.863 321.603 302.331 321.117 302.331 320.505ZM300.459 333.015H302.007V324.015H300.459V333.015ZM305.697 333.015H307.245V325.437H309.855V324.015H307.245V322.359C307.245 321.225 307.749 320.829 308.739 320.829C309.099 320.829 309.567 320.901 309.855 321.009V319.641C309.459 319.497 308.991 319.407 308.451 319.407C306.885 319.407 305.697 320.343 305.697 322.197V324.015H303.789V325.437H305.697V333.015ZM313.419 320.505C313.419 319.911 312.951 319.407 312.339 319.407C311.727 319.407 311.223 319.911 311.223 320.505C311.223 321.117 311.727 321.603 312.339 321.603C312.951 321.603 313.419 321.117 313.419 320.505ZM311.547 333.015H313.095V324.015H311.547V333.015ZM324.062 330.279H322.478C321.938 331.359 320.984 331.791 319.868 331.791C318.248 331.791 316.934 330.567 316.88 328.929H324.206C324.422 326.139 322.712 323.835 319.886 323.835C317.078 323.835 315.314 325.887 315.314 328.515C315.314 331.197 317.222 333.195 319.85 333.195C322.136 333.195 323.612 331.863 324.062 330.279ZM319.832 325.203C321.164 325.203 322.28 326.031 322.568 327.705H316.952C317.258 325.923 318.536 325.203 319.832 325.203ZM325.737 328.515C325.737 331.089 327.627 333.195 330.147 333.195C331.497 333.195 332.721 332.493 333.315 331.629V333.015H334.863V319.515H333.315V325.401C332.721 324.537 331.497 323.835 330.147 323.835C327.627 323.835 325.737 325.941 325.737 328.515ZM333.441 328.515C333.441 330.333 332.199 331.773 330.381 331.773C328.563 331.773 327.303 330.333 327.303 328.515C327.303 326.697 328.563 325.257 330.381 325.257C332.199 325.257 333.441 326.697 333.441 328.515ZM353.315 333.015H355.601L353.225 330.819C354.143 329.685 354.683 328.227 354.683 326.625C354.683 322.917 351.767 320.019 348.077 320.019C344.405 320.019 341.471 322.917 341.471 326.625C341.471 330.333 344.405 333.231 348.077 333.231C349.607 333.231 350.993 332.727 352.109 331.899L353.315 333.015ZM343.163 326.625C343.163 323.817 345.287 321.603 348.077 321.603C350.885 321.603 353.009 323.817 353.009 326.625C353.009 327.795 352.649 328.857 352.019 329.703L349.895 327.741L348.869 328.893L350.903 330.783C350.111 331.323 349.139 331.647 348.077 331.647C345.287 331.647 343.163 329.433 343.163 326.625ZM357.075 329.541C357.075 331.773 358.407 333.195 360.387 333.195C361.521 333.195 362.565 332.673 363.159 331.629V333.015H364.707V324.015H363.159V328.479C363.159 330.549 362.061 331.773 360.657 331.773C359.415 331.773 358.623 330.819 358.623 329.307V324.015H357.075V329.541ZM375.671 330.279H374.087C373.547 331.359 372.593 331.791 371.477 331.791C369.857 331.791 368.543 330.567 368.489 328.929H375.815C376.031 326.139 374.321 323.835 371.495 323.835C368.687 323.835 366.923 325.887 366.923 328.515C366.923 331.197 368.831 333.195 371.459 333.195C373.745 333.195 375.221 331.863 375.671 330.279ZM371.441 325.203C372.773 325.203 373.889 326.031 374.177 327.705H368.561C368.867 325.923 370.145 325.203 371.441 325.203ZM378.049 333.015H379.597V328.551C379.597 326.445 380.839 325.455 381.973 325.455C382.279 325.455 382.531 325.491 382.819 325.599V323.997C382.567 323.943 382.351 323.925 382.117 323.925C381.073 323.925 379.957 324.609 379.597 325.761V324.015H378.049V333.015ZM387.035 336.777L392.939 324.015H391.211L388.133 330.837L385.037 324.015H383.327L387.269 332.547L385.307 336.777H387.035ZM396.474 333.015H398.202L399.84 329.289H405.798L407.436 333.015H409.182L403.512 320.235H402.126L396.474 333.015ZM400.488 327.777L402.81 322.503L405.132 327.777H400.488ZM414.884 320.235H410.978V333.015H412.652V328.353H414.884C417.548 328.353 419.276 326.607 419.276 324.303C419.276 321.999 417.548 320.235 414.884 320.235ZM414.884 326.805H412.652V321.801H414.884C416.648 321.801 417.62 322.881 417.62 324.303C417.62 325.725 416.648 326.805 414.884 326.805ZM421.525 333.015H423.199V320.235H421.525V333.015Z" fill="#001E2B"/>
</g>
<g opacity="0.15">
<path opacity="0.9" d="M3.2404 334.38L63.8717 310.212C67.8823 308.614 72.3591 308.616 76.368 310.221L136.765 334.383C141.087 336.112 141.075 342.204 136.746 343.917L76.3096 367.833C72.335 369.406 67.9064 369.41 63.9301 367.84L3.25932 343.919C-1.07812 342.209 -1.08844 336.107 3.2404 334.38Z" fill="#001E2B"/>
<path d="M3.2404 331.38L63.8717 307.212C67.8823 305.614 72.3591 305.616 76.368 307.221L136.765 331.383C141.087 333.112 141.075 339.204 136.746 340.917L76.3096 364.833C72.335 366.406 67.9064 366.41 63.9301 364.84L3.25932 340.919C-1.07812 339.209 -1.08844 333.107 3.2404 331.38Z" fill="#00D2FF"/>
<path d="M31.301 341.015H32.484V332.929H35.357V331.785H28.428V332.929H31.301V341.015ZM35.468 341.015H36.586V337.791C36.586 336.27 37.483 335.555 38.302 335.555C38.523 335.555 38.705 335.581 38.913 335.659V334.502C38.731 334.463 38.575 334.45 38.406 334.45C37.652 334.45 36.846 334.944 36.586 335.776V334.515H35.468V341.015ZM39.506 337.765C39.506 339.624 40.871 341.145 42.691 341.145C43.666 341.145 44.55 340.638 44.979 340.014V341.015H46.097V334.515H44.979V335.516C44.55 334.892 43.666 334.385 42.691 334.385C40.871 334.385 39.506 335.906 39.506 337.765ZM45.07 337.765C45.07 339.078 44.173 340.118 42.86 340.118C41.547 340.118 40.637 339.078 40.637 337.765C40.637 336.452 41.547 335.412 42.86 335.412C44.173 335.412 45.07 336.452 45.07 337.765ZM48.2014 341.015H49.3194V337.791C49.3194 336.27 50.1514 335.412 51.2044 335.412C52.1144 335.412 52.7384 336.088 52.7384 337.18V341.015H53.8434V337.011C53.8434 335.399 52.8424 334.385 51.3864 334.385C50.5414 334.385 49.7614 334.749 49.3194 335.516V334.515H48.2014V341.015ZM60.3417 339.26C60.3417 338.285 59.7567 337.609 58.6777 337.336L57.6377 337.063C56.9487 336.881 56.6497 336.608 56.6497 336.127C56.6497 335.633 57.1437 335.321 57.7677 335.321C58.3787 335.321 58.8467 335.672 59.0157 336.244H60.1337C60.0167 335.204 59.1587 334.385 57.7677 334.385C56.4547 334.385 55.5187 335.061 55.5187 336.14C55.5187 337.063 56.0777 337.765 57.1957 338.051L58.1317 338.298C58.8987 338.506 59.2107 338.818 59.2107 339.338C59.2107 339.91 58.6647 340.196 57.9627 340.196C57.2867 340.196 56.6107 339.923 56.4547 339.13H55.3107C55.4017 340.443 56.5587 341.145 57.9497 341.145C59.3017 341.145 60.3417 340.547 60.3417 339.26ZM61.4181 337.765C61.4181 339.624 62.7831 341.145 64.6031 341.145C65.5781 341.145 66.4621 340.638 66.8911 340.014V341.015H68.0091V334.515H66.8911V335.516C66.4621 334.892 65.5781 334.385 64.6031 334.385C62.7831 334.385 61.4181 335.906 61.4181 337.765ZM66.9821 337.765C66.9821 339.078 66.0851 340.118 64.7721 340.118C63.4591 340.118 62.5491 339.078 62.5491 337.765C62.5491 336.452 63.4591 335.412 64.7721 335.412C66.0851 335.412 66.9821 336.452 66.9821 337.765ZM76.2755 338.727H75.0795C74.7935 339.546 74.0135 340.118 72.9995 340.118C71.6475 340.118 70.7375 339.078 70.7375 337.765C70.7375 336.452 71.6475 335.412 72.9995 335.412C74.0135 335.412 74.7935 335.984 75.0795 336.803H76.2755C75.9115 335.399 74.6375 334.385 72.9995 334.385C71.0235 334.385 69.6065 335.906 69.6065 337.765C69.6065 339.624 71.0235 341.145 72.9995 341.145C74.6375 341.145 75.9115 340.131 76.2755 338.727ZM81.2156 340.924V339.923C81.0076 340.001 80.6956 340.053 80.4226 340.053C79.7206 340.053 79.3436 339.78 79.3436 338.948V335.542H81.2156V334.515H79.3436V332.708H78.2256V334.515H76.8476V335.542H78.2256V339.091C78.2256 340.443 79.0836 341.08 80.2146 341.08C80.6176 341.08 80.9426 341.015 81.2156 340.924ZM83.9958 331.98C83.9958 331.551 83.6578 331.187 83.2158 331.187C82.7738 331.187 82.4098 331.551 82.4098 331.98C82.4098 332.422 82.7738 332.773 83.2158 332.773C83.6578 332.773 83.9958 332.422 83.9958 331.98ZM82.6438 341.015H83.7618V334.515H82.6438V341.015ZM92.1601 337.765C92.1601 335.893 90.7171 334.385 88.7671 334.385C86.8041 334.385 85.3611 335.893 85.3611 337.765C85.3611 339.637 86.8041 341.145 88.7671 341.145C90.7171 341.145 92.1601 339.637 92.1601 337.765ZM86.5051 337.765C86.5051 336.465 87.4151 335.425 88.7671 335.425C90.1191 335.425 91.0161 336.465 91.0161 337.765C91.0161 339.065 90.1191 340.105 88.7671 340.105C87.4151 340.105 86.5051 339.065 86.5051 337.765ZM93.7649 341.015H94.8829V337.791C94.8829 336.27 95.7149 335.412 96.7679 335.412C97.6779 335.412 98.3019 336.088 98.3019 337.18V341.015H99.4069V337.011C99.4069 335.399 98.4059 334.385 96.9499 334.385C96.1049 334.385 95.3249 334.749 94.8829 335.516V334.515H93.7649V341.015ZM100.913 337.765C100.913 339.624 102.278 341.145 104.098 341.145C105.073 341.145 105.957 340.638 106.386 340.014V341.015H107.504V334.515H106.386V335.516C105.957 334.892 105.073 334.385 104.098 334.385C102.278 334.385 100.913 335.906 100.913 337.765ZM106.477 337.765C106.477 339.078 105.58 340.118 104.267 340.118C102.954 340.118 102.044 339.078 102.044 337.765C102.044 336.452 102.954 335.412 104.267 335.412C105.58 335.412 106.477 336.452 106.477 337.765ZM109.609 341.015H110.727V331.265H109.609V341.015Z" fill="#001E2B"/>
</g>
<g opacity="0.15">
<path opacity="0.9" d="M96.6642 372.38L157.296 348.212C161.306 346.614 165.783 346.616 169.792 348.221L230.189 372.383C234.511 374.112 234.499 380.204 230.17 381.917L169.733 405.833C165.759 407.406 161.33 407.41 157.354 405.84L96.6832 381.919C92.3457 380.209 92.3354 374.107 96.6642 372.38Z" fill="#001E2B"/>
<path d="M96.6642 369.38L157.296 345.212C161.306 343.614 165.783 343.616 169.792 345.221L230.189 369.383C234.511 371.112 234.499 377.204 230.17 378.917L169.733 402.833C165.759 404.406 161.33 404.41 157.354 402.84L96.6832 378.919C92.3457 377.209 92.3354 371.107 96.6642 369.38Z" fill="#00D2FF"/>
<path d="M142.136 376.545C142.188 377.949 143.41 379.171 145.347 379.171C147.063 379.171 148.285 378.183 148.285 376.623C148.285 375.245 147.479 374.439 146.075 373.932L144.892 373.503C143.995 373.178 143.566 372.788 143.566 372.008C143.566 371.241 144.255 370.76 145.139 370.76C145.893 370.76 146.647 371.163 146.881 372.125H148.077C147.96 370.916 147.037 369.629 145.165 369.629C143.553 369.629 142.357 370.539 142.357 372.047C142.37 373.347 143.059 374.14 144.489 374.647L145.763 375.115C146.621 375.427 147.076 375.934 147.076 376.662C147.076 377.52 146.296 378.04 145.334 378.04C144.463 378.04 143.449 377.572 143.345 376.545H142.136ZM155.74 377.039H154.596C154.206 377.819 153.517 378.131 152.711 378.131C151.541 378.131 150.592 377.247 150.553 376.064H155.844C156 374.049 154.765 372.385 152.724 372.385C150.696 372.385 149.422 373.867 149.422 375.765C149.422 377.702 150.8 379.145 152.698 379.145C154.349 379.145 155.415 378.183 155.74 377.039ZM152.685 373.373C153.647 373.373 154.453 373.971 154.661 375.18H150.605C150.826 373.893 151.749 373.373 152.685 373.373ZM156.951 375.765C156.951 377.624 158.316 379.145 160.136 379.145C161.111 379.145 161.995 378.638 162.424 378.014V379.015H163.542V372.515H162.424V373.516C161.995 372.892 161.111 372.385 160.136 372.385C158.316 372.385 156.951 373.906 156.951 375.765ZM162.515 375.765C162.515 377.078 161.618 378.118 160.305 378.118C158.992 378.118 158.082 377.078 158.082 375.765C158.082 374.452 158.992 373.412 160.305 373.412C161.618 373.412 162.515 374.452 162.515 375.765ZM165.646 379.015H166.764V375.791C166.764 374.27 167.661 373.555 168.48 373.555C168.701 373.555 168.883 373.581 169.091 373.659V372.502C168.909 372.463 168.753 372.45 168.584 372.45C167.83 372.45 167.024 372.944 166.764 373.776V372.515H165.646V379.015ZM176.34 376.727H175.144C174.858 377.546 174.078 378.118 173.064 378.118C171.712 378.118 170.802 377.078 170.802 375.765C170.802 374.452 171.712 373.412 173.064 373.412C174.078 373.412 174.858 373.984 175.144 374.803H176.34C175.976 373.399 174.702 372.385 173.064 372.385C171.088 372.385 169.671 373.906 169.671 375.765C169.671 377.624 171.088 379.145 173.064 379.145C174.702 379.145 175.976 378.131 176.34 376.727ZM177.821 379.015H178.939V375.791C178.939 374.27 179.771 373.412 180.824 373.412C181.734 373.412 182.358 374.088 182.358 375.18V379.015H183.463V375.011C183.463 373.399 182.462 372.385 181.006 372.385C180.161 372.385 179.381 372.749 178.939 373.516V369.265H177.821V379.015Z" fill="#001E2B"/>
</g>
<g opacity="0.15">
<path opacity="0.9" d="M192.484 411.38L253.115 387.212C257.126 385.614 261.602 385.616 265.611 387.221L326.009 411.383C330.331 413.112 330.318 419.204 325.99 420.917L265.553 444.833C261.578 446.406 257.15 446.41 253.173 444.84L192.502 420.919C188.165 419.209 188.155 413.107 192.484 411.38Z" fill="#001E2B"/>
<path d="M192.484 408.38L253.115 384.212C257.126 382.614 261.602 382.616 265.611 384.221L326.009 408.383C330.331 410.112 330.318 416.204 325.99 417.917L265.553 441.833C261.578 443.406 257.15 443.41 253.173 441.84L192.502 417.919C188.165 416.209 188.155 410.107 192.484 408.38Z" fill="#00D2FF"/>
<path d="M227.689 418.015H228.937L230.12 415.324H234.423L235.606 418.015H236.867L232.772 408.785H231.771L227.689 418.015ZM230.588 414.232L232.265 410.423L233.942 414.232H230.588ZM237.995 418.015H239.113V414.791C239.113 413.27 239.945 412.412 240.998 412.412C241.908 412.412 242.532 413.088 242.532 414.18V418.015H243.637V414.011C243.637 412.399 242.636 411.385 241.18 411.385C240.335 411.385 239.555 411.749 239.113 412.516V411.515H237.995V418.015ZM245.143 414.765C245.143 416.624 246.508 418.145 248.328 418.145C249.303 418.145 250.187 417.638 250.616 417.014V418.015H251.734V411.515H250.616V412.516C250.187 411.892 249.303 411.385 248.328 411.385C246.508 411.385 245.143 412.906 245.143 414.765ZM250.707 414.765C250.707 416.078 249.81 417.118 248.497 417.118C247.184 417.118 246.274 416.078 246.274 414.765C246.274 413.452 247.184 412.412 248.497 412.412C249.81 412.412 250.707 413.452 250.707 414.765ZM253.839 418.015H254.957V408.265H253.839V418.015ZM258.805 420.732L263.069 411.515H261.821L259.598 416.442L257.362 411.515H256.127L258.974 417.677L257.557 420.732H258.805ZM267.708 417.924V416.923C267.5 417.001 267.188 417.053 266.915 417.053C266.213 417.053 265.836 416.78 265.836 415.948V412.542H267.708V411.515H265.836V409.708H264.718V411.515H263.34V412.542H264.718V416.091C264.718 417.443 265.576 418.08 266.707 418.08C267.11 418.08 267.435 418.015 267.708 417.924ZM270.488 408.98C270.488 408.551 270.15 408.187 269.708 408.187C269.266 408.187 268.902 408.551 268.902 408.98C268.902 409.422 269.266 409.773 269.708 409.773C270.15 409.773 270.488 409.422 270.488 408.98ZM269.136 418.015H270.254V411.515H269.136V418.015ZM278.536 415.727H277.34C277.054 416.546 276.274 417.118 275.26 417.118C273.908 417.118 272.998 416.078 272.998 414.765C272.998 413.452 273.908 412.412 275.26 412.412C276.274 412.412 277.054 412.984 277.34 413.803H278.536C278.172 412.399 276.898 411.385 275.26 411.385C273.284 411.385 271.867 412.906 271.867 414.765C271.867 416.624 273.284 418.145 275.26 418.145C276.898 418.145 278.172 417.131 278.536 415.727ZM279.509 414.765C279.509 416.624 280.874 418.145 282.694 418.145C283.669 418.145 284.553 417.638 284.982 417.014V418.015H286.1V411.515H284.982V412.516C284.553 411.892 283.669 411.385 282.694 411.385C280.874 411.385 279.509 412.906 279.509 414.765ZM285.073 414.765C285.073 416.078 284.176 417.118 282.863 417.118C281.55 417.118 280.64 416.078 280.64 414.765C280.64 413.452 281.55 412.412 282.863 412.412C284.176 412.412 285.073 413.452 285.073 414.765ZM288.205 418.015H289.323V408.265H288.205V418.015Z" fill="#001E2B"/>
</g>
<g opacity="0.15">
<path opacity="0.9" d="M686.76 334.38L626.128 310.212C622.118 308.614 617.641 308.616 613.632 310.221L553.235 334.383C548.913 336.112 548.925 342.204 553.254 343.917L613.69 367.833C617.665 369.406 622.094 369.41 626.07 367.84L686.741 343.919C691.078 342.209 691.088 336.107 686.76 334.38Z" fill="#001E2B"/>
<path d="M686.76 331.38L626.128 307.212C622.118 305.614 617.641 305.616 613.632 307.221L553.235 331.383C548.913 333.112 548.925 339.204 553.254 340.917L613.69 364.833C617.665 366.406 622.094 366.41 626.07 364.84L686.741 340.919C691.078 339.209 691.088 333.107 686.76 331.38Z" fill="#A6FFEC"/>
<path d="M589.69 331.545C589.742 332.949 590.964 334.171 592.901 334.171C594.617 334.171 595.839 333.183 595.839 331.623C595.839 330.245 595.033 329.439 593.629 328.932L592.446 328.503C591.549 328.178 591.12 327.788 591.12 327.008C591.12 326.241 591.809 325.76 592.693 325.76C593.447 325.76 594.201 326.163 594.435 327.125H595.631C595.514 325.916 594.591 324.629 592.719 324.629C591.107 324.629 589.911 325.539 589.911 327.047C589.924 328.347 590.613 329.14 592.043 329.647L593.317 330.115C594.175 330.427 594.63 330.934 594.63 331.662C594.63 332.52 593.85 333.04 592.888 333.04C592.017 333.04 591.003 332.572 590.899 331.545H589.69ZM603.295 332.039H602.151C601.761 332.819 601.072 333.131 600.266 333.131C599.096 333.131 598.147 332.247 598.108 331.064H603.399C603.555 329.049 602.32 327.385 600.279 327.385C598.251 327.385 596.977 328.867 596.977 330.765C596.977 332.702 598.355 334.145 600.253 334.145C601.904 334.145 602.97 333.183 603.295 332.039ZM600.24 328.373C601.202 328.373 602.008 328.971 602.216 330.18H598.16C598.381 328.893 599.304 328.373 600.24 328.373ZM605.012 334.015H606.13V330.791C606.13 329.27 607.027 328.555 607.846 328.555C608.067 328.555 608.249 328.581 608.457 328.659V327.502C608.275 327.463 608.119 327.45 607.95 327.45C607.196 327.45 606.39 327.944 606.13 328.776V327.515H605.012V334.015ZM611.801 334.015H612.737L615.74 327.515H614.492L612.269 332.429L610.046 327.515H608.798L611.801 334.015ZM622.541 332.039H621.397C621.007 332.819 620.318 333.131 619.512 333.131C618.342 333.131 617.393 332.247 617.354 331.064H622.645C622.801 329.049 621.566 327.385 619.525 327.385C617.497 327.385 616.223 328.867 616.223 330.765C616.223 332.702 617.601 334.145 619.499 334.145C621.15 334.145 622.216 333.183 622.541 332.039ZM619.486 328.373C620.448 328.373 621.254 328.971 621.462 330.18H617.406C617.627 328.893 618.55 328.373 619.486 328.373ZM624.259 334.015H625.377V330.791C625.377 329.27 626.274 328.555 627.093 328.555C627.314 328.555 627.496 328.581 627.704 328.659V327.502C627.522 327.463 627.366 327.45 627.197 327.45C626.443 327.45 625.637 327.944 625.377 328.776V327.515H624.259V334.015ZM629.019 334.015H630.137V324.265H629.019V334.015ZM638.068 332.039H636.924C636.534 332.819 635.845 333.131 635.039 333.131C633.869 333.131 632.92 332.247 632.881 331.064H638.172C638.328 329.049 637.093 327.385 635.052 327.385C633.024 327.385 631.75 328.867 631.75 330.765C631.75 332.702 633.128 334.145 635.026 334.145C636.677 334.145 637.743 333.183 638.068 332.039ZM635.013 328.373C635.975 328.373 636.781 328.971 636.989 330.18H632.933C633.154 328.893 634.077 328.373 635.013 328.373ZM644.27 332.26C644.27 331.285 643.685 330.609 642.606 330.336L641.566 330.063C640.877 329.881 640.578 329.608 640.578 329.127C640.578 328.633 641.072 328.321 641.696 328.321C642.307 328.321 642.775 328.672 642.944 329.244H644.062C643.945 328.204 643.087 327.385 641.696 327.385C640.383 327.385 639.447 328.061 639.447 329.14C639.447 330.063 640.006 330.765 641.124 331.051L642.06 331.298C642.827 331.506 643.139 331.818 643.139 332.338C643.139 332.91 642.593 333.196 641.891 333.196C641.215 333.196 640.539 332.923 640.383 332.13H639.239C639.33 333.443 640.487 334.145 641.878 334.145C643.23 334.145 644.27 333.547 644.27 332.26ZM650.338 332.26C650.338 331.285 649.753 330.609 648.674 330.336L647.634 330.063C646.945 329.881 646.646 329.608 646.646 329.127C646.646 328.633 647.14 328.321 647.764 328.321C648.375 328.321 648.843 328.672 649.012 329.244H650.13C650.013 328.204 649.155 327.385 647.764 327.385C646.451 327.385 645.515 328.061 645.515 329.14C645.515 330.063 646.074 330.765 647.192 331.051L648.128 331.298C648.895 331.506 649.207 331.818 649.207 332.338C649.207 332.91 648.661 333.196 647.959 333.196C647.283 333.196 646.607 332.923 646.451 332.13H645.307C645.398 333.443 646.555 334.145 647.946 334.145C649.298 334.145 650.338 333.547 650.338 332.26ZM604.177 347.015H605.425L606.608 344.324H610.911L612.094 347.015H613.355L609.26 337.785H608.259L604.177 347.015ZM607.076 343.232L608.753 339.423L610.43 343.232H607.076ZM614.483 349.732H615.601V346.014C616.03 346.638 616.914 347.145 617.889 347.145C619.696 347.145 621.074 345.624 621.074 343.765C621.074 341.906 619.696 340.385 617.889 340.385C616.914 340.385 616.03 340.892 615.601 341.516V340.515H614.483V349.732ZM619.93 343.765C619.93 345.078 619.033 346.118 617.72 346.118C616.407 346.118 615.51 345.078 615.51 343.765C615.51 342.452 616.407 341.412 617.72 341.412C619.033 341.412 619.93 342.452 619.93 343.765ZM622.684 349.732H623.802V346.014C624.231 346.638 625.115 347.145 626.09 347.145C627.897 347.145 629.275 345.624 629.275 343.765C629.275 341.906 627.897 340.385 626.09 340.385C625.115 340.385 624.231 340.892 623.802 341.516V340.515H622.684V349.732ZM628.131 343.765C628.131 345.078 627.234 346.118 625.921 346.118C624.608 346.118 623.711 345.078 623.711 343.765C623.711 342.452 624.608 341.412 625.921 341.412C627.234 341.412 628.131 342.452 628.131 343.765ZM635.371 345.26C635.371 344.285 634.786 343.609 633.707 343.336L632.667 343.063C631.978 342.881 631.679 342.608 631.679 342.127C631.679 341.633 632.173 341.321 632.797 341.321C633.408 341.321 633.876 341.672 634.045 342.244H635.163C635.046 341.204 634.188 340.385 632.797 340.385C631.484 340.385 630.548 341.061 630.548 342.14C630.548 343.063 631.107 343.765 632.225 344.051L633.161 344.298C633.928 344.506 634.24 344.818 634.24 345.338C634.24 345.91 633.694 346.196 632.992 346.196C632.316 346.196 631.64 345.923 631.484 345.13H630.34C630.431 346.443 631.588 347.145 632.979 347.145C634.331 347.145 635.371 346.547 635.371 345.26Z" fill="#001E2B"/>
</g>
<g opacity="0.15">
<path opacity="0.9" d="M593.579 372.38L532.948 348.212C528.937 346.614 524.46 346.616 520.451 348.221L460.054 372.383C455.732 374.112 455.744 380.204 460.073 381.917L520.51 405.833C524.484 407.406 528.913 407.41 532.889 405.84L593.56 381.919C597.897 380.209 597.908 374.107 593.579 372.38Z" fill="#001E2B"/>
<path d="M593.579 369.38L532.948 345.212C528.937 343.614 524.46 343.616 520.451 345.221L460.054 369.383C455.732 371.112 455.744 377.204 460.073 378.917L520.51 402.833C524.484 404.406 528.913 404.41 532.889 402.84L593.56 378.919C597.897 377.209 597.908 371.107 593.579 369.38Z" fill="#A6FFEC"/>
<path d="M512.021 369.311L515.349 364.839V372.015H516.545V362.785H515.453L512.021 367.387L508.589 362.785H507.484V372.015H508.693V364.839L512.021 369.311ZM524.995 368.765C524.995 366.893 523.552 365.385 521.602 365.385C519.639 365.385 518.196 366.893 518.196 368.765C518.196 370.637 519.639 372.145 521.602 372.145C523.552 372.145 524.995 370.637 524.995 368.765ZM519.34 368.765C519.34 367.465 520.25 366.425 521.602 366.425C522.954 366.425 523.851 367.465 523.851 368.765C523.851 370.065 522.954 371.105 521.602 371.105C520.25 371.105 519.34 370.065 519.34 368.765ZM527.717 371.014C528.146 371.638 529.03 372.145 530.005 372.145C531.812 372.145 533.19 370.624 533.19 368.765C533.19 366.906 531.812 365.385 530.005 365.385C529.03 365.385 528.146 365.892 527.717 366.516V362.265H526.599V372.015H527.717V371.014ZM532.046 368.765C532.046 370.078 531.149 371.118 529.836 371.118C528.523 371.118 527.626 370.078 527.626 368.765C527.626 367.452 528.523 366.412 529.836 366.412C531.149 366.412 532.046 367.452 532.046 368.765ZM536.14 362.98C536.14 362.551 535.802 362.187 535.36 362.187C534.918 362.187 534.554 362.551 534.554 362.98C534.554 363.422 534.918 363.773 535.36 363.773C535.802 363.773 536.14 363.422 536.14 362.98ZM534.788 372.015H535.906V365.515H534.788V372.015ZM538.025 372.015H539.143V362.265H538.025V372.015ZM547.073 370.039H545.929C545.539 370.819 544.85 371.131 544.044 371.131C542.874 371.131 541.925 370.247 541.886 369.064H547.177C547.333 367.049 546.098 365.385 544.057 365.385C542.029 365.385 540.755 366.867 540.755 368.765C540.755 370.702 542.133 372.145 544.031 372.145C545.682 372.145 546.748 371.183 547.073 370.039ZM544.018 366.373C544.98 366.373 545.786 366.971 545.994 368.18H541.938C542.159 366.893 543.082 366.373 544.018 366.373ZM511.177 385.015H512.425L513.608 382.324H517.911L519.094 385.015H520.355L516.26 375.785H515.259L511.177 385.015ZM514.076 381.232L515.753 377.423L517.43 381.232H514.076ZM521.483 387.732H522.601V384.014C523.03 384.638 523.914 385.145 524.889 385.145C526.696 385.145 528.074 383.624 528.074 381.765C528.074 379.906 526.696 378.385 524.889 378.385C523.914 378.385 523.03 378.892 522.601 379.516V378.515H521.483V387.732ZM526.93 381.765C526.93 383.078 526.033 384.118 524.72 384.118C523.407 384.118 522.51 383.078 522.51 381.765C522.51 380.452 523.407 379.412 524.72 379.412C526.033 379.412 526.93 380.452 526.93 381.765ZM529.684 387.732H530.802V384.014C531.231 384.638 532.115 385.145 533.09 385.145C534.897 385.145 536.275 383.624 536.275 381.765C536.275 379.906 534.897 378.385 533.09 378.385C532.115 378.385 531.231 378.892 530.802 379.516V378.515H529.684V387.732ZM535.131 381.765C535.131 383.078 534.234 384.118 532.921 384.118C531.608 384.118 530.711 383.078 530.711 381.765C530.711 380.452 531.608 379.412 532.921 379.412C534.234 379.412 535.131 380.452 535.131 381.765ZM542.371 383.26C542.371 382.285 541.786 381.609 540.707 381.336L539.667 381.063C538.978 380.881 538.679 380.608 538.679 380.127C538.679 379.633 539.173 379.321 539.797 379.321C540.408 379.321 540.876 379.672 541.045 380.244H542.163C542.046 379.204 541.188 378.385 539.797 378.385C538.484 378.385 537.548 379.061 537.548 380.14C537.548 381.063 538.107 381.765 539.225 382.051L540.161 382.298C540.928 382.506 541.24 382.818 541.24 383.338C541.24 383.91 540.694 384.196 539.992 384.196C539.316 384.196 538.64 383.923 538.484 383.13H537.34C537.431 384.443 538.588 385.145 539.979 385.145C541.331 385.145 542.371 384.547 542.371 383.26Z" fill="#001E2B"/>
</g>
<g opacity="0.15">
<path opacity="0.9" d="M497.76 411.38L437.128 387.212C433.118 385.614 428.641 385.616 424.632 387.221L364.235 411.383C359.913 413.112 359.925 419.204 364.254 420.917L424.69 444.833C428.665 446.406 433.094 446.41 437.07 444.84L497.741 420.919C502.078 419.209 502.088 413.107 497.76 411.38Z" fill="#001E2B"/>
<path d="M497.76 408.38L437.128 384.212C433.118 382.614 428.641 382.616 424.632 384.221L364.235 408.383C359.913 410.112 359.925 416.204 364.254 417.917L424.69 441.833C428.665 443.406 433.094 443.41 437.07 441.84L497.741 417.919C502.078 416.209 502.088 410.107 497.76 408.38Z" fill="#A6FFEC"/>
<path d="M398.345 411.015H400.997C403.831 411.015 405.911 409.039 405.911 406.4C405.911 403.761 403.831 401.785 400.997 401.785H398.345V411.015ZM399.554 409.884V402.916H400.997C403.22 402.916 404.689 404.398 404.689 406.4C404.689 408.402 403.22 409.884 400.997 409.884H399.554ZM408.833 401.98C408.833 401.551 408.495 401.187 408.053 401.187C407.611 401.187 407.247 401.551 407.247 401.98C407.247 402.422 407.611 402.773 408.053 402.773C408.495 402.773 408.833 402.422 408.833 401.98ZM407.481 411.015H408.599V404.515H407.481V411.015ZM415.204 409.26C415.204 408.285 414.619 407.609 413.54 407.336L412.5 407.063C411.811 406.881 411.512 406.608 411.512 406.127C411.512 405.633 412.006 405.321 412.63 405.321C413.241 405.321 413.709 405.672 413.878 406.244H414.996C414.879 405.204 414.021 404.385 412.63 404.385C411.317 404.385 410.381 405.061 410.381 406.14C410.381 407.063 410.94 407.765 412.058 408.051L412.994 408.298C413.761 408.506 414.073 408.818 414.073 409.338C414.073 409.91 413.527 410.196 412.825 410.196C412.149 410.196 411.473 409.923 411.317 409.13H410.173C410.264 410.443 411.421 411.145 412.812 411.145C414.164 411.145 415.204 410.547 415.204 409.26ZM420.208 410.924V409.923C420 410.001 419.688 410.053 419.415 410.053C418.713 410.053 418.336 409.78 418.336 408.948V405.542H420.208V404.515H418.336V402.708H417.218V404.515H415.84V405.542H417.218V409.091C417.218 410.443 418.076 411.08 419.207 411.08C419.61 411.08 419.935 411.015 420.208 410.924ZM421.636 411.015H422.754V407.791C422.754 406.27 423.651 405.555 424.47 405.555C424.691 405.555 424.873 405.581 425.081 405.659V404.502C424.899 404.463 424.743 404.45 424.574 404.45C423.82 404.45 423.014 404.944 422.754 405.776V404.515H421.636V411.015ZM427.749 401.98C427.749 401.551 427.411 401.187 426.969 401.187C426.527 401.187 426.163 401.551 426.163 401.98C426.163 402.422 426.527 402.773 426.969 402.773C427.411 402.773 427.749 402.422 427.749 401.98ZM426.397 411.015H427.515V404.515H426.397V411.015ZM430.753 410.014C431.182 410.638 432.066 411.145 433.041 411.145C434.848 411.145 436.226 409.624 436.226 407.765C436.226 405.906 434.848 404.385 433.041 404.385C432.066 404.385 431.182 404.892 430.753 405.516V401.265H429.635V411.015H430.753V410.014ZM435.082 407.765C435.082 409.078 434.185 410.118 432.872 410.118C431.559 410.118 430.662 409.078 430.662 407.765C430.662 406.452 431.559 405.412 432.872 405.412C434.185 405.412 435.082 406.452 435.082 407.765ZM437.732 408.506C437.732 410.118 438.694 411.145 440.124 411.145C440.943 411.145 441.697 410.768 442.126 410.014V411.015H443.244V404.515H442.126V407.739C442.126 409.234 441.333 410.118 440.319 410.118C439.422 410.118 438.85 409.429 438.85 408.337V404.515H437.732V408.506ZM448.874 410.924V409.923C448.666 410.001 448.354 410.053 448.081 410.053C447.379 410.053 447.002 409.78 447.002 408.948V405.542H448.874V404.515H447.002V402.708H445.884V404.515H444.506V405.542H445.884V409.091C445.884 410.443 446.742 411.08 447.873 411.08C448.276 411.08 448.601 411.015 448.874 410.924ZM456.025 409.039H454.881C454.491 409.819 453.802 410.131 452.996 410.131C451.826 410.131 450.877 409.247 450.838 408.064H456.129C456.285 406.049 455.05 404.385 453.009 404.385C450.981 404.385 449.707 405.867 449.707 407.765C449.707 409.702 451.085 411.145 452.983 411.145C454.634 411.145 455.7 410.183 456.025 409.039ZM452.97 405.373C453.932 405.373 454.738 405.971 454.946 407.18H450.89C451.111 405.893 452.034 405.373 452.97 405.373ZM457.235 407.765C457.235 409.624 458.6 411.145 460.42 411.145C461.395 411.145 462.279 410.638 462.708 410.014V411.015H463.826V401.265H462.708V405.516C462.279 404.892 461.395 404.385 460.42 404.385C458.6 404.385 457.235 405.906 457.235 407.765ZM462.799 407.765C462.799 409.078 461.902 410.118 460.589 410.118C459.276 410.118 458.366 409.078 458.366 407.765C458.366 406.452 459.276 405.412 460.589 405.412C461.902 405.412 462.799 406.452 462.799 407.765ZM415.177 424.015H416.425L417.608 421.324H421.911L423.094 424.015H424.355L420.26 414.785H419.259L415.177 424.015ZM418.076 420.232L419.753 416.423L421.43 420.232H418.076ZM425.483 426.732H426.601V423.014C427.03 423.638 427.914 424.145 428.889 424.145C430.696 424.145 432.074 422.624 432.074 420.765C432.074 418.906 430.696 417.385 428.889 417.385C427.914 417.385 427.03 417.892 426.601 418.516V417.515H425.483V426.732ZM430.93 420.765C430.93 422.078 430.033 423.118 428.72 423.118C427.407 423.118 426.51 422.078 426.51 420.765C426.51 419.452 427.407 418.412 428.72 418.412C430.033 418.412 430.93 419.452 430.93 420.765ZM433.684 426.732H434.802V423.014C435.231 423.638 436.115 424.145 437.09 424.145C438.897 424.145 440.275 422.624 440.275 420.765C440.275 418.906 438.897 417.385 437.09 417.385C436.115 417.385 435.231 417.892 434.802 418.516V417.515H433.684V426.732ZM439.131 420.765C439.131 422.078 438.234 423.118 436.921 423.118C435.608 423.118 434.711 422.078 434.711 420.765C434.711 419.452 435.608 418.412 436.921 418.412C438.234 418.412 439.131 419.452 439.131 420.765ZM446.371 422.26C446.371 421.285 445.786 420.609 444.707 420.336L443.667 420.063C442.978 419.881 442.679 419.608 442.679 419.127C442.679 418.633 443.173 418.321 443.797 418.321C444.408 418.321 444.876 418.672 445.045 419.244H446.163C446.046 418.204 445.188 417.385 443.797 417.385C442.484 417.385 441.548 418.061 441.548 419.14C441.548 420.063 442.107 420.765 443.225 421.051L444.161 421.298C444.928 421.506 445.24 421.818 445.24 422.338C445.24 422.91 444.694 423.196 443.992 423.196C443.316 423.196 442.64 422.923 442.484 422.13H441.34C441.431 423.443 442.588 424.145 443.979 424.145C445.331 424.145 446.371 423.547 446.371 422.26Z" fill="#001E2B"/>
</g>
<path opacity="0.1" d="M125.647 111.549L324.865 30.9903C338.043 25.6623 352.752 25.668 365.924 31.0188L564.373 111.561C578.574 117.322 578.535 137.63 564.311 143.341L365.732 223.061C352.673 228.303 338.122 228.315 325.057 223.084L125.709 143.346C111.458 137.647 111.424 117.305 125.647 111.549Z" fill="#001E2B"/>
<path opacity="0.9" d="M125.647 87.5494L324.865 6.99031C338.043 1.6623 352.752 1.66801 365.924 7.01884L564.373 87.5608C578.574 93.3223 578.535 113.63 564.311 119.341L365.732 199.061C352.673 204.303 338.122 204.315 325.057 199.084L125.709 119.346C111.458 113.647 111.424 93.3052 125.647 87.5494Z" fill="#001E2B"/>
<path d="M125.647 84.5494L324.865 3.99031C338.043 -1.3377 352.752 -1.33199 365.924 4.01884L564.373 84.5608C578.574 90.3223 578.535 110.63 564.311 116.341L365.732 196.061C352.673 201.303 338.122 201.315 325.057 196.084L125.709 116.346C111.458 110.647 111.424 90.3052 125.647 84.5494Z" fill="#00ED64"/>
<path d="M268.17 104.58C268.242 106.524 269.934 108.216 272.616 108.216C274.992 108.216 276.684 106.848 276.684 104.688C276.684 102.78 275.568 101.664 273.624 100.962L271.986 100.368C270.744 99.918 270.15 99.378 270.15 98.298C270.15 97.236 271.104 96.57 272.328 96.57C273.372 96.57 274.416 97.128 274.74 98.46H276.396C276.234 96.786 274.956 95.004 272.364 95.004C270.132 95.004 268.476 96.264 268.476 98.352C268.494 100.152 269.448 101.25 271.428 101.952L273.192 102.6C274.38 103.032 275.01 103.734 275.01 104.742C275.01 105.93 273.93 106.65 272.598 106.65C271.392 106.65 269.988 106.002 269.844 104.58H268.17ZM287.008 105.264H285.424C284.884 106.344 283.93 106.776 282.814 106.776C281.194 106.776 279.88 105.552 279.826 103.914H287.152C287.368 101.124 285.658 98.82 282.832 98.82C280.024 98.82 278.26 100.872 278.26 103.5C278.26 106.182 280.168 108.18 282.796 108.18C285.082 108.18 286.558 106.848 287.008 105.264ZM282.778 100.188C284.11 100.188 285.226 101.016 285.514 102.69H279.898C280.204 100.908 281.482 100.188 282.778 100.188ZM289.386 108H290.934V103.536C290.934 101.43 292.176 100.44 293.31 100.44C293.616 100.44 293.868 100.476 294.156 100.584V98.982C293.904 98.928 293.688 98.91 293.454 98.91C292.41 98.91 291.294 99.594 290.934 100.746V99H289.386V108ZM298.786 108H300.082L304.24 99H302.512L299.434 105.804L296.356 99H294.628L298.786 108ZM313.656 105.264H312.072C311.532 106.344 310.578 106.776 309.462 106.776C307.842 106.776 306.528 105.552 306.474 103.914H313.8C314.016 101.124 312.306 98.82 309.48 98.82C306.672 98.82 304.908 100.872 304.908 103.5C304.908 106.182 306.816 108.18 309.444 108.18C311.73 108.18 313.206 106.848 313.656 105.264ZM309.426 100.188C310.758 100.188 311.874 101.016 312.162 102.69H306.546C306.852 100.908 308.13 100.188 309.426 100.188ZM316.034 108H317.582V103.536C317.582 101.43 318.824 100.44 319.958 100.44C320.264 100.44 320.516 100.476 320.804 100.584V98.982C320.552 98.928 320.336 98.91 320.102 98.91C319.058 98.91 317.942 99.594 317.582 100.746V99H316.034V108ZM322.626 108H324.174V94.5H322.626V108ZM335.154 105.264H333.57C333.03 106.344 332.076 106.776 330.96 106.776C329.34 106.776 328.026 105.552 327.972 103.914H335.298C335.514 101.124 333.804 98.82 330.978 98.82C328.17 98.82 326.406 100.872 326.406 103.5C326.406 106.182 328.314 108.18 330.942 108.18C333.228 108.18 334.704 106.848 335.154 105.264ZM330.924 100.188C332.256 100.188 333.372 101.016 333.66 102.69H328.044C328.35 100.908 329.628 100.188 330.924 100.188ZM343.742 105.57C343.742 104.22 342.932 103.284 341.438 102.906L339.998 102.528C339.044 102.276 338.63 101.898 338.63 101.232C338.63 100.548 339.314 100.116 340.178 100.116C341.024 100.116 341.672 100.602 341.906 101.394H343.454C343.292 99.954 342.104 98.82 340.178 98.82C338.36 98.82 337.064 99.756 337.064 101.25C337.064 102.528 337.838 103.5 339.386 103.896L340.682 104.238C341.744 104.526 342.176 104.958 342.176 105.678C342.176 106.47 341.42 106.866 340.448 106.866C339.512 106.866 338.576 106.488 338.36 105.39H336.776C336.902 107.208 338.504 108.18 340.43 108.18C342.302 108.18 343.742 107.352 343.742 105.57ZM352.145 105.57C352.145 104.22 351.335 103.284 349.841 102.906L348.401 102.528C347.447 102.276 347.033 101.898 347.033 101.232C347.033 100.548 347.717 100.116 348.581 100.116C349.427 100.116 350.075 100.602 350.309 101.394H351.857C351.695 99.954 350.507 98.82 348.581 98.82C346.763 98.82 345.467 99.756 345.467 101.25C345.467 102.528 346.241 103.5 347.789 103.896L349.085 104.238C350.147 104.526 350.579 104.958 350.579 105.678C350.579 106.47 349.823 106.866 348.851 106.866C347.915 106.866 346.979 106.488 346.763 105.39H345.179C345.305 107.208 346.907 108.18 348.833 108.18C350.705 108.18 352.145 107.352 352.145 105.57ZM356.731 108H358.459L360.097 104.274H366.055L367.693 108H369.439L363.769 95.22H362.383L356.731 108ZM360.745 102.762L363.067 97.488L365.389 102.762H360.745ZM371.001 111.762H372.549V106.614C373.143 107.478 374.367 108.18 375.717 108.18C378.219 108.18 380.127 106.074 380.127 103.5C380.127 100.926 378.219 98.82 375.717 98.82C374.367 98.82 373.143 99.522 372.549 100.386V99H371.001V111.762ZM378.543 103.5C378.543 105.318 377.301 106.758 375.483 106.758C373.665 106.758 372.423 105.318 372.423 103.5C372.423 101.682 373.665 100.242 375.483 100.242C377.301 100.242 378.543 101.682 378.543 103.5ZM382.356 111.762H383.904V106.614C384.498 107.478 385.722 108.18 387.072 108.18C389.574 108.18 391.482 106.074 391.482 103.5C391.482 100.926 389.574 98.82 387.072 98.82C385.722 98.82 384.498 99.522 383.904 100.386V99H382.356V111.762ZM389.898 103.5C389.898 105.318 388.656 106.758 386.838 106.758C385.02 106.758 383.778 105.318 383.778 103.5C383.778 101.682 385.02 100.242 386.838 100.242C388.656 100.242 389.898 101.682 389.898 103.5ZM400.282 108H401.92V96.804H405.898V95.22H396.304V96.804H400.282V108ZM409.435 95.49C409.435 94.896 408.967 94.392 408.355 94.392C407.743 94.392 407.239 94.896 407.239 95.49C407.239 96.102 407.743 96.588 408.355 96.588C408.967 96.588 409.435 96.102 409.435 95.49ZM407.563 108H409.111V99H407.563V108ZM420.092 105.264H418.508C417.968 106.344 417.014 106.776 415.898 106.776C414.278 106.776 412.964 105.552 412.91 103.914H420.236C420.452 101.124 418.742 98.82 415.916 98.82C413.108 98.82 411.344 100.872 411.344 103.5C411.344 106.182 413.252 108.18 415.88 108.18C418.166 108.18 419.642 106.848 420.092 105.264ZM415.862 100.188C417.194 100.188 418.31 101.016 418.598 102.69H412.982C413.288 100.908 414.566 100.188 415.862 100.188ZM422.47 108H424.018V103.536C424.018 101.43 425.26 100.44 426.394 100.44C426.7 100.44 426.952 100.476 427.24 100.584V98.982C426.988 98.928 426.772 98.91 426.538 98.91C425.494 98.91 424.378 99.594 424.018 100.746V99H422.47V108Z" fill="#001E2B"/>
<path opacity="0.9" d="M4.05051 153.706L79.8396 123.496C84.8529 121.498 90.4489 121.501 95.46 123.507L170.957 153.71C176.359 155.871 176.344 163.486 170.933 165.628L95.387 195.523C90.4188 197.489 84.883 197.493 79.9127 195.531L4.07415 165.63C-1.34764 163.493 -1.36054 155.864 4.05051 153.706Z" fill="#001E2B"/>
<path d="M4.05051 150.706L79.8396 120.496C84.8529 118.498 90.4489 118.501 95.46 120.507L170.957 150.71C176.359 152.871 176.344 160.486 170.933 162.628L95.387 192.523C90.4188 194.489 84.883 194.493 79.9127 192.531L4.07415 162.63C-1.34764 160.493 -1.36054 152.864 4.05051 150.706Z" fill="#00D2FF"/>
<path d="M58.7054 162H59.9144V157.853H63.2034V156.709H59.9144V153.914H64.0744V152.77H58.7054V162ZM64.92 159.491C64.92 161.103 65.882 162.13 67.312 162.13C68.131 162.13 68.885 161.753 69.314 160.999V162H70.432V155.5H69.314V158.724C69.314 160.219 68.521 161.103 67.507 161.103C66.61 161.103 66.038 160.414 66.038 159.322V155.5H64.92V159.491ZM72.5393 162H73.6573V158.776C73.6573 157.255 74.4893 156.397 75.5423 156.397C76.4523 156.397 77.0763 157.073 77.0763 158.165V162H78.1813V157.996C78.1813 156.384 77.1803 155.37 75.7243 155.37C74.8793 155.37 74.0993 155.734 73.6573 156.501V155.5H72.5393V162ZM86.3566 159.712H85.1606C84.8746 160.531 84.0946 161.103 83.0806 161.103C81.7286 161.103 80.8186 160.063 80.8186 158.75C80.8186 157.437 81.7286 156.397 83.0806 156.397C84.0946 156.397 84.8746 156.969 85.1606 157.788H86.3566C85.9926 156.384 84.7186 155.37 83.0806 155.37C81.1046 155.37 79.6876 156.891 79.6876 158.75C79.6876 160.609 81.1046 162.13 83.0806 162.13C84.7186 162.13 85.9926 161.116 86.3566 159.712ZM91.2967 161.909V160.908C91.0887 160.986 90.7767 161.038 90.5037 161.038C89.8017 161.038 89.4247 160.765 89.4247 159.933V156.527H91.2967V155.5H89.4247V153.693H88.3067V155.5H86.9287V156.527H88.3067V160.076C88.3067 161.428 89.1647 162.065 90.2957 162.065C90.6987 162.065 91.0237 162 91.2967 161.909ZM94.0769 152.965C94.0769 152.536 93.7389 152.172 93.2969 152.172C92.8549 152.172 92.4909 152.536 92.4909 152.965C92.4909 153.407 92.8549 153.758 93.2969 153.758C93.7389 153.758 94.0769 153.407 94.0769 152.965ZM92.7249 162H93.8429V155.5H92.7249V162ZM102.241 158.75C102.241 156.878 100.798 155.37 98.8482 155.37C96.8852 155.37 95.4422 156.878 95.4422 158.75C95.4422 160.622 96.8852 162.13 98.8482 162.13C100.798 162.13 102.241 160.622 102.241 158.75ZM96.5862 158.75C96.5862 157.45 97.4962 156.41 98.8482 156.41C100.2 156.41 101.097 157.45 101.097 158.75C101.097 160.05 100.2 161.09 98.8482 161.09C97.4962 161.09 96.5862 160.05 96.5862 158.75ZM103.846 162H104.964V158.776C104.964 157.255 105.796 156.397 106.849 156.397C107.759 156.397 108.383 157.073 108.383 158.165V162H109.488V157.996C109.488 156.384 108.487 155.37 107.031 155.37C106.186 155.37 105.406 155.734 104.964 156.501V155.5H103.846V162ZM115.986 160.245C115.986 159.27 115.401 158.594 114.322 158.321L113.282 158.048C112.593 157.866 112.294 157.593 112.294 157.112C112.294 156.618 112.788 156.306 113.412 156.306C114.023 156.306 114.491 156.657 114.66 157.229H115.778C115.661 156.189 114.803 155.37 113.412 155.37C112.099 155.37 111.163 156.046 111.163 157.125C111.163 158.048 111.722 158.75 112.84 159.036L113.776 159.283C114.543 159.491 114.855 159.803 114.855 160.323C114.855 160.895 114.309 161.181 113.607 161.181C112.931 161.181 112.255 160.908 112.099 160.115H110.955C111.046 161.428 112.203 162.13 113.594 162.13C114.946 162.13 115.986 161.532 115.986 160.245Z" fill="#001E2B"/>
<path opacity="0.9" d="M131.051 204.706L206.84 174.496C211.853 172.498 217.449 172.501 222.46 174.507L297.957 204.71C303.359 206.871 303.344 214.486 297.933 216.628L222.387 246.523C217.419 248.489 211.883 248.493 206.913 246.531L131.074 216.63C125.652 214.493 125.639 206.864 131.051 204.706Z" fill="#001E2B"/>
<path d="M131.051 201.706L206.84 171.496C211.853 169.498 217.449 169.501 222.46 171.507L297.957 201.71C303.359 203.871 303.344 211.486 297.933 213.628L222.387 243.523C217.419 245.489 211.883 245.493 206.913 243.531L131.074 213.63C125.652 211.493 125.639 203.864 131.051 201.706Z" fill="#00D2FF"/>
<path d="M192.571 213H193.754V204.914H196.627V203.77H189.698V204.914H192.571V213ZM196.738 213H197.856V209.776C197.856 208.255 198.753 207.54 199.572 207.54C199.793 207.54 199.975 207.566 200.183 207.644V206.487C200.001 206.448 199.845 206.435 199.676 206.435C198.922 206.435 198.116 206.929 197.856 207.761V206.5H196.738V213ZM202.851 203.965C202.851 203.536 202.513 203.172 202.071 203.172C201.629 203.172 201.265 203.536 201.265 203.965C201.265 204.407 201.629 204.758 202.071 204.758C202.513 204.758 202.851 204.407 202.851 203.965ZM201.499 213H202.617V206.5H201.499V213ZM204.45 213.598C204.645 214.911 205.854 215.847 207.596 215.847C209.364 215.847 210.794 214.768 210.794 212.597V206.5H209.676V207.501C209.234 206.851 208.376 206.37 207.414 206.37C205.607 206.37 204.229 207.826 204.229 209.672C204.229 211.531 205.607 212.987 207.414 212.987C208.376 212.987 209.234 212.493 209.676 211.843V212.61C209.676 214.079 208.792 214.859 207.622 214.859C206.569 214.859 205.841 214.456 205.542 213.598H204.45ZM209.767 209.672C209.767 210.985 208.87 211.947 207.57 211.947C206.27 211.947 205.373 210.985 205.373 209.672C205.373 208.372 206.27 207.397 207.57 207.397C208.87 207.397 209.767 208.372 209.767 209.672ZM212.613 213.598C212.808 214.911 214.017 215.847 215.759 215.847C217.527 215.847 218.957 214.768 218.957 212.597V206.5H217.839V207.501C217.397 206.851 216.539 206.37 215.577 206.37C213.77 206.37 212.392 207.826 212.392 209.672C212.392 211.531 213.77 212.987 215.577 212.987C216.539 212.987 217.397 212.493 217.839 211.843V212.61C217.839 214.079 216.955 214.859 215.785 214.859C214.732 214.859 214.004 214.456 213.705 213.598H212.613ZM217.93 209.672C217.93 210.985 217.033 211.947 215.733 211.947C214.433 211.947 213.536 210.985 213.536 209.672C213.536 208.372 214.433 207.397 215.733 207.397C217.033 207.397 217.93 208.372 217.93 209.672ZM226.873 211.024H225.729C225.339 211.804 224.65 212.116 223.844 212.116C222.674 212.116 221.725 211.232 221.686 210.049H226.977C227.133 208.034 225.898 206.37 223.857 206.37C221.829 206.37 220.555 207.852 220.555 209.75C220.555 211.687 221.933 213.13 223.831 213.13C225.482 213.13 226.548 212.168 226.873 211.024ZM223.818 207.358C224.78 207.358 225.586 207.956 225.794 209.165H221.738C221.959 207.878 222.882 207.358 223.818 207.358ZM228.59 213H229.708V209.776C229.708 208.255 230.605 207.54 231.424 207.54C231.645 207.54 231.827 207.566 232.035 207.644V206.487C231.853 206.448 231.697 206.435 231.528 206.435C230.774 206.435 229.968 206.929 229.708 207.761V206.5H228.59V213ZM237.722 211.245C237.722 210.27 237.137 209.594 236.058 209.321L235.018 209.048C234.329 208.866 234.03 208.593 234.03 208.112C234.03 207.618 234.524 207.306 235.148 207.306C235.759 207.306 236.227 207.657 236.396 208.229H237.514C237.397 207.189 236.539 206.37 235.148 206.37C233.835 206.37 232.899 207.046 232.899 208.125C232.899 209.048 233.458 209.75 234.576 210.036L235.512 210.283C236.279 210.491 236.591 210.803 236.591 211.323C236.591 211.895 236.045 212.181 235.343 212.181C234.667 212.181 233.991 211.908 233.835 211.115H232.691C232.782 212.428 233.939 213.13 235.33 213.13C236.682 213.13 237.722 212.532 237.722 211.245Z" fill="#001E2B"/>
<path opacity="0.9" d="M261.051 256.706L336.84 226.496C341.853 224.498 347.449 224.501 352.46 226.507L427.957 256.71C433.359 258.871 433.344 266.486 427.933 268.628L352.387 298.523C347.419 300.489 341.883 300.493 336.913 298.531L261.074 268.63C255.652 266.493 255.639 258.864 261.051 256.706Z" fill="#001E2B"/>
<path d="M261.051 253.706L336.84 223.496C341.853 221.498 347.449 221.501 352.46 223.507L427.957 253.71C433.359 255.871 433.344 263.486 427.933 265.628L352.387 295.523C347.419 297.489 341.883 297.493 336.913 295.531L261.074 265.63C255.652 263.493 255.639 255.864 261.051 253.706Z" fill="#00D2FF"/>
<path d="M318.264 265H320.916C323.75 265 325.83 263.024 325.83 260.385C325.83 257.746 323.75 255.77 320.916 255.77H318.264V265ZM319.473 263.869V256.901H320.916C323.139 256.901 324.608 258.383 324.608 260.385C324.608 262.387 323.139 263.869 320.916 263.869H319.473ZM326.957 261.75C326.957 263.609 328.322 265.13 330.142 265.13C331.117 265.13 332.001 264.623 332.43 263.999V265H333.548V258.5H332.43V259.501C332.001 258.877 331.117 258.37 330.142 258.37C328.322 258.37 326.957 259.891 326.957 261.75ZM332.521 261.75C332.521 263.063 331.624 264.103 330.311 264.103C328.998 264.103 328.088 263.063 328.088 261.75C328.088 260.437 328.998 259.397 330.311 259.397C331.624 259.397 332.521 260.437 332.521 261.75ZM339.175 264.909V263.908C338.967 263.986 338.655 264.038 338.382 264.038C337.68 264.038 337.303 263.765 337.303 262.933V259.527H339.175V258.5H337.303V256.693H336.185V258.5H334.807V259.527H336.185V263.076C336.185 264.428 337.043 265.065 338.174 265.065C338.577 265.065 338.902 265 339.175 264.909ZM340.007 261.75C340.007 263.609 341.372 265.13 343.192 265.13C344.167 265.13 345.051 264.623 345.48 263.999V265H346.598V258.5H345.48V259.501C345.051 258.877 344.167 258.37 343.192 258.37C341.372 258.37 340.007 259.891 340.007 261.75ZM345.571 261.75C345.571 263.063 344.674 264.103 343.361 264.103C342.048 264.103 341.138 263.063 341.138 261.75C341.138 260.437 342.048 259.397 343.361 259.397C344.674 259.397 345.571 260.437 345.571 261.75ZM350.432 265H351.68L352.863 262.309H357.166L358.349 265H359.61L355.515 255.77H354.514L350.432 265ZM353.331 261.217L355.008 257.408L356.685 261.217H353.331ZM363.728 255.77H360.907V265H362.116V261.633H363.728C365.652 261.633 366.9 260.372 366.9 258.708C366.9 257.044 365.652 255.77 363.728 255.77ZM363.728 260.515H362.116V256.901H363.728C365.002 256.901 365.704 257.681 365.704 258.708C365.704 259.735 365.002 260.515 363.728 260.515ZM368.524 265H369.733V255.77H368.524V265Z" fill="#001E2B"/>
<path opacity="0.9" d="M392.051 204.706L467.84 174.496C472.853 172.498 478.449 172.501 483.46 174.507L558.957 204.71C564.359 206.871 564.344 214.486 558.933 216.628L483.387 246.523C478.419 248.489 472.883 248.493 467.913 246.531L392.074 216.63C386.652 214.493 386.639 206.864 392.051 204.706Z" fill="#001E2B"/>
<path d="M392.051 201.706L467.84 171.496C472.853 169.498 478.449 169.501 483.46 171.507L558.957 201.71C564.359 203.871 564.344 211.486 558.933 213.628L483.387 243.523C478.419 245.489 472.883 245.493 467.913 243.531L392.074 213.63C386.652 211.493 386.639 203.864 392.051 201.706Z" fill="#00D2FF"/>
<path d="M435.627 208.385C435.627 211.076 437.707 213.156 440.411 213.156C443.102 213.156 445.299 211.089 445.039 207.722H440.359V208.853H443.804C443.635 210.673 442.309 212.012 440.411 212.012C438.357 212.012 436.836 210.426 436.836 208.385C436.836 206.344 438.357 204.758 440.411 204.758C441.802 204.758 442.946 205.499 443.44 206.5H444.779C444.259 204.966 442.595 203.614 440.411 203.614C437.707 203.614 435.627 205.694 435.627 208.385ZM446.631 213H447.749V209.776C447.749 208.255 448.646 207.54 449.465 207.54C449.686 207.54 449.868 207.566 450.076 207.644V206.487C449.894 206.448 449.738 206.435 449.569 206.435C448.815 206.435 448.009 206.929 447.749 207.761V206.5H446.631V213ZM450.669 209.75C450.669 211.609 452.034 213.13 453.854 213.13C454.829 213.13 455.713 212.623 456.142 211.999V213H457.26V206.5H456.142V207.501C455.713 206.877 454.829 206.37 453.854 206.37C452.034 206.37 450.669 207.891 450.669 209.75ZM456.233 209.75C456.233 211.063 455.336 212.103 454.023 212.103C452.71 212.103 451.8 211.063 451.8 209.75C451.8 208.437 452.71 207.397 454.023 207.397C455.336 207.397 456.233 208.437 456.233 209.75ZM459.365 215.717H460.483V211.999C460.912 212.623 461.796 213.13 462.771 213.13C464.578 213.13 465.956 211.609 465.956 209.75C465.956 207.891 464.578 206.37 462.771 206.37C461.796 206.37 460.912 206.877 460.483 207.501V206.5H459.365V215.717ZM464.812 209.75C464.812 211.063 463.915 212.103 462.602 212.103C461.289 212.103 460.392 211.063 460.392 209.75C460.392 208.437 461.289 207.397 462.602 207.397C463.915 207.397 464.812 208.437 464.812 209.75ZM467.566 213H468.684V209.776C468.684 208.255 469.516 207.397 470.569 207.397C471.479 207.397 472.103 208.073 472.103 209.165V213H473.208V208.996C473.208 207.384 472.207 206.37 470.751 206.37C469.906 206.37 469.126 206.734 468.684 207.501V203.25H467.566V213ZM483.307 213H484.958L483.242 211.414C483.905 210.595 484.295 209.542 484.295 208.385C484.295 205.707 482.189 203.614 479.524 203.614C476.872 203.614 474.753 205.707 474.753 208.385C474.753 211.063 476.872 213.156 479.524 213.156C480.629 213.156 481.63 212.792 482.436 212.194L483.307 213ZM475.975 208.385C475.975 206.357 477.509 204.758 479.524 204.758C481.552 204.758 483.086 206.357 483.086 208.385C483.086 209.23 482.826 209.997 482.371 210.608L480.837 209.191L480.096 210.023L481.565 211.388C480.993 211.778 480.291 212.012 479.524 212.012C477.509 212.012 475.975 210.413 475.975 208.385ZM486.296 213H491.964V211.856H487.505V203.77H486.296V213ZM494.546 213H495.794L496.977 210.309H501.28L502.463 213H503.724L499.629 203.77H498.628L494.546 213ZM497.445 209.217L499.122 205.408L500.799 209.217H497.445ZM507.842 203.77H505.021V213H506.23V209.633H507.842C509.766 209.633 511.014 208.372 511.014 206.708C511.014 205.044 509.766 203.77 507.842 203.77ZM507.842 208.515H506.23V204.901H507.842C509.116 204.901 509.818 205.681 509.818 206.708C509.818 207.735 509.116 208.515 507.842 208.515ZM512.638 213H513.847V203.77H512.638V213Z" fill="#001E2B"/>
<path opacity="0.9" d="M519.051 153.706L594.84 123.496C599.853 121.498 605.449 121.501 610.46 123.507L685.957 153.71C691.359 155.871 691.344 163.486 685.933 165.628L610.387 195.523C605.419 197.489 599.883 197.493 594.913 195.531L519.074 165.63C513.652 163.493 513.639 155.864 519.051 153.706Z" fill="#001E2B"/>
<path d="M519.051 150.706L594.84 120.496C599.853 118.498 605.449 118.501 610.46 120.507L685.957 150.71C691.359 152.871 691.344 160.486 685.933 162.628L610.387 192.523C605.419 194.489 599.883 194.493 594.913 192.531L519.074 162.63C513.652 160.493 513.639 152.864 519.051 150.706Z" fill="#00D2FF"/>
<path d="M565.78 162H568.432C571.266 162 573.346 160.024 573.346 157.385C573.346 154.746 571.266 152.77 568.432 152.77H565.78V162ZM566.989 160.869V153.901H568.432C570.655 153.901 572.124 155.383 572.124 157.385C572.124 159.387 570.655 160.869 568.432 160.869H566.989ZM580.791 160.024H579.647C579.257 160.804 578.568 161.116 577.762 161.116C576.592 161.116 575.643 160.232 575.604 159.049H580.895C581.051 157.034 579.816 155.37 577.775 155.37C575.747 155.37 574.473 156.852 574.473 158.75C574.473 160.687 575.851 162.13 577.749 162.13C579.4 162.13 580.466 161.168 580.791 160.024ZM577.736 156.358C578.698 156.358 579.504 156.956 579.712 158.165H575.656C575.877 156.878 576.8 156.358 577.736 156.358ZM584.422 162H585.358L588.361 155.5H587.113L584.89 160.414L582.667 155.5H581.419L584.422 162ZM590.843 152.965C590.843 152.536 590.505 152.172 590.063 152.172C589.621 152.172 589.257 152.536 589.257 152.965C589.257 153.407 589.621 153.758 590.063 153.758C590.505 153.758 590.843 153.407 590.843 152.965ZM589.491 162H590.609V155.5H589.491V162ZM598.89 159.712H597.694C597.408 160.531 596.628 161.103 595.614 161.103C594.262 161.103 593.352 160.063 593.352 158.75C593.352 157.437 594.262 156.397 595.614 156.397C596.628 156.397 597.408 156.969 597.694 157.788H598.89C598.526 156.384 597.252 155.37 595.614 155.37C593.638 155.37 592.221 156.891 592.221 158.75C592.221 160.609 593.638 162.13 595.614 162.13C597.252 162.13 598.526 161.116 598.89 159.712ZM606.182 160.024H605.038C604.648 160.804 603.959 161.116 603.153 161.116C601.983 161.116 601.034 160.232 600.995 159.049H606.286C606.442 157.034 605.207 155.37 603.166 155.37C601.138 155.37 599.864 156.852 599.864 158.75C599.864 160.687 601.242 162.13 603.14 162.13C604.791 162.13 605.857 161.168 606.182 160.024ZM603.127 156.358C604.089 156.358 604.895 156.956 605.103 158.165H601.047C601.268 156.878 602.191 156.358 603.127 156.358ZM610.541 159.53C610.593 160.934 611.815 162.156 613.752 162.156C615.468 162.156 616.69 161.168 616.69 159.608C616.69 158.23 615.884 157.424 614.48 156.917L613.297 156.488C612.4 156.163 611.971 155.773 611.971 154.993C611.971 154.226 612.66 153.745 613.544 153.745C614.298 153.745 615.052 154.148 615.286 155.11H616.482C616.365 153.901 615.442 152.614 613.57 152.614C611.958 152.614 610.762 153.524 610.762 155.032C610.775 156.332 611.464 157.125 612.894 157.632L614.168 158.1C615.026 158.412 615.481 158.919 615.481 159.647C615.481 160.505 614.701 161.025 613.739 161.025C612.868 161.025 611.854 160.557 611.75 159.53H610.541ZM620.051 164.717L624.315 155.5H623.067L620.844 160.427L618.608 155.5H617.373L620.22 161.662L618.803 164.717H620.051ZM625.431 162H626.549V158.776C626.549 157.255 627.381 156.397 628.434 156.397C629.344 156.397 629.968 157.073 629.968 158.165V162H631.073V157.996C631.073 156.384 630.072 155.37 628.616 155.37C627.771 155.37 626.991 155.734 626.549 156.501V155.5H625.431V162ZM639.249 159.712H638.053C637.767 160.531 636.987 161.103 635.973 161.103C634.621 161.103 633.711 160.063 633.711 158.75C633.711 157.437 634.621 156.397 635.973 156.397C636.987 156.397 637.767 156.969 638.053 157.788H639.249C638.885 156.384 637.611 155.37 635.973 155.37C633.997 155.37 632.58 156.891 632.58 158.75C632.58 160.609 633.997 162.13 635.973 162.13C637.611 162.13 638.885 161.116 639.249 159.712Z" fill="#001E2B"/>
</g>
<defs>
<clipPath id="clip0_17530_51615">
<rect width="690" height="590" fill="white"/>
</clipPath>
</defs>
</svg>
