<?xml version="1.0" encoding="UTF-8"?><svg xmlns="http://www.w3.org/2000/svg" xmlns:xlink="http://www.w3.org/1999/xlink" viewBox="0 0 595.46 436.38"><defs><style>.e,.f,.g{fill:none;}.f{stroke-dasharray:0 0 2.04 2.04;}.f,.h,.i,.g,.j{stroke:#001e2b;}.f,.j,.k,.l{stroke-miterlimit:10;}.m{fill:#0d427c;}.m,.n,.h,.i,.o,.p,.q,.g{stroke-linecap:round;stroke-linejoin:round;}.m,.o,.p,.q{stroke:#001932;}.n{fill:#97ff00;}.n,.k,.l{stroke:#001f2c;}.h,.r{fill:#e3fcf7;}.i,.l{fill:#fff;}.o{fill:#001932;}.p{fill:#006cfa;}.q{fill:#00d2ff;}.s{fill:#001e2b;}.j{fill:#00ed64;}.k{fill:#001f2c;}.t{clip-path:url(#d);}</style><clipPath id="d"><rect class="e" x="147.76" y="109.78" width="334.32" height="238.39"/></clipPath></defs><g id="a"/><g id="b"><g id="c"><g><g><circle class="m" cx="141.01" cy="126.36" r="9.81"/><line class="o" x1="147.11" y1="134.21" x2="125.14" y2="156.18"/><line class="f" x1="141.01" y1="126.36" x2="98.79" y2="168.59"/></g><rect class="i" x="147.76" y="109.49" width="334.32" height="238.39"/><rect class="j" x="147.76" y="109.49" width="334.32" height="27.14"/><circle class="i" cx="164.38" cy="122.53" r="5.48"/><circle class="i" cx="183.43" cy="122.38" r="5.48"/><circle class="i" cx="202.7" cy="122.53" r="5.48"/><rect class="r" x="163.26" y="153.58" width="303.32" height="177.17"/><g><polygon class="o" points="94.94 47.25 90.78 33.51 79.17 29.96 90.78 26.42 94.94 12.68 99.11 26.42 110.72 29.96 99.11 33.51 94.94 47.25"/><polygon class="h" points="98.78 44.06 94.61 30.32 83 26.78 94.61 23.24 98.78 9.49 102.94 23.24 114.56 26.78 102.94 30.32 98.78 44.06"/></g><circle class="q" cx="452.3" cy="331.69" r="104.19"/><path class="o" d="M481.68,406.33c-57.54,0-104.19-46.65-104.19-104.19,0-21.12,6.29-40.78,17.1-57.2-28.01,18.68-46.47,50.55-46.47,86.75,0,57.54,46.65,104.19,104.19,104.19,36.42,0,68.46-18.69,87.09-46.99-16.52,11.02-36.37,17.44-57.72,17.44Z"/><g class="t"><polygon class="k" points="111.5 197.51 111.88 221.25 165.11 242.31 112.26 264.14 112.26 287.88 198.42 251.5 198.04 233.12 111.5 197.51"/><circle class="o" cx="243.34" cy="263" r="16"/><polygon class="o" points="337.24 185.77 311.66 185.77 274.37 279 298.87 279 337.24 185.77"/></g><polygon class="n" points="122.11 177.98 122.11 201.72 175.72 223.17 122.49 244.61 122.49 268.35 208.65 231.98 208.65 213.59 122.11 177.98"/><circle class="o" cx="175.64" cy="36.54" r="27.87"/><circle class="l" cx="255.56" cy="255.21" r="16"/><polygon class="l" points="352.91 177.98 327.33 177.98 290.04 271.21 314.55 271.21 352.91 177.98"/><g><circle class="p" cx="182.69" cy="28.37" r="27.87"/><line class="o" x1="101.93" y1="69.71" x2="162.98" y2="8.66"/><line class="f" x1="202.39" y1="48.08" x2="164.32" y2="86.15"/><line class="o" x1="182.69" y1="28.37" x2="84.37" y2="126.69"/><line class="o" x1="73.75" y1="137.35" x2="58.56" y2="152.54"/></g><g><circle class="m" cx="42.58" cy="100.69" r="9.81"/><line class="o" x1="34.74" y1="94.6" x2="12.76" y2="116.57"/><line class="f" x1="42.58" y1="100.69" x2=".35" y2="142.91"/></g><line class="q" x1="421.61" y1="340.41" x2="536.14" y2="340.41"/><line class="q" x1="359.31" y1="306.52" x2="431.88" y2="306.52"/><line class="q" x1="448.37" y1="306.52" x2="463.87" y2="306.52"/><line class="q" x1="428.52" y1="264.97" x2="491.45" y2="264.97"/><line class="q" x1="513.09" y1="372.6" x2="548.15" y2="372.6"/><g><circle class="i" cx="582.37" cy="310.92" r="12.59"/><path class="s" d="M582.41,323.51c-6.95,0-12.58-5.62-12.59-12.57,0-3.16,1.19-6.21,3.33-8.54-.4,1.24-.6,2.53-.6,3.83,0,6.95,5.62,12.59,12.56,12.59,3.54,0,6.92-1.48,9.3-4.1-1.66,5.23-6.52,8.78-12.01,8.78Z"/></g><path class="f" d="M452.3,203.66c55.9,0,103.43,35.82,120.89,85.75"/><line class="g" x1="428.52" y1="391.76" x2="456.12" y2="391.76"/><polygon class="i" points="35.3 203.15 31.14 189.41 19.52 185.87 31.14 182.33 35.3 168.59 39.47 182.33 51.08 185.87 39.47 189.41 35.3 203.15"/><polygon class="o" points="331.97 435.88 327.8 422.14 316.19 418.6 327.8 415.05 331.97 401.31 336.13 415.05 347.74 418.6 336.13 422.14 331.97 435.88"/><circle class="l" cx="255.56" cy="255.21" r="16"/></g></g></g></svg>